<?xml version="1.0" encoding="UTF-8" standalone="no"?>
<!DOCTYPE svg PUBLIC "-//W3C//DTD SVG 1.1//EN" "http://www.w3.org/Graphics/SVG/1.1/DTD/svg11.dtd">
<svg width="100%" height="100%" viewBox="0 0 452 757" version="1.1" xmlns="http://www.w3.org/2000/svg" xmlns:xlink="http://www.w3.org/1999/xlink" xml:space="preserve" xmlns:serif="http://www.serif.com/" style="fill-rule:evenodd;clip-rule:evenodd;stroke-linejoin:round;stroke-miterlimit:2;">
    <g transform="matrix(1,0,0,1,-1300.77,-186.743)">
        <g transform="matrix(0.670266,0,0,0.670266,878.574,172.576)">
            <g id="ESCRITO" transform="matrix(0.443204,0,0,0.443204,856.272,169.818)">
                <g transform="matrix(3.71162,0,0,3.71162,-4937.98,-735.676)">
                    <g transform="matrix(56,0,0,56,1192.8,622.935)">
                        <path d="M0.703,-0.185L0.495,-0.735L0.291,-0.185L0.105,-0.7L0.01,-0.7L0.285,0.035L0.495,-0.509L0.705,0.035L0.98,-0.7L0.885,-0.7L0.703,-0.185Z" style="fill:white;fill-rule:nonzero;"/>
                    </g>
                    <g transform="matrix(56,0,0,56,1252.72,622.935)">
                        <path d="M0.075,-0.7L0.075,-0.23C0.075,-0.195 0.081,-0.163 0.092,-0.134C0.102,-0.105 0.118,-0.079 0.14,-0.058C0.161,-0.037 0.186,-0.02 0.215,-0.008C0.244,0.004 0.277,0.01 0.313,0.01C0.349,0.01 0.382,0.004 0.411,-0.008C0.44,-0.02 0.466,-0.037 0.487,-0.058C0.507,-0.079 0.524,-0.105 0.535,-0.134C0.546,-0.163 0.551,-0.195 0.551,-0.23L0.551,-0.7L0.466,-0.7L0.466,-0.23C0.466,-0.182 0.453,-0.143 0.427,-0.114C0.401,-0.085 0.363,-0.07 0.313,-0.07C0.263,-0.07 0.225,-0.085 0.199,-0.114C0.173,-0.143 0.16,-0.182 0.16,-0.23L0.16,-0.7L0.075,-0.7Z" style="fill:white;fill-rule:nonzero;"/>
                    </g>
                    <g transform="matrix(56,0,0,56,1313.54,622.935)">
                        <path d="M0.035,-0.62L0.383,-0.62L0.015,-0L0.505,-0L0.505,-0.08L0.157,-0.08L0.525,-0.7L0.035,-0.7L0.035,-0.62Z" style="fill:white;fill-rule:nonzero;"/>
                    </g>
                    <g transform="matrix(56,0,0,56,1348.54,622.935)">
                        <path d="M0.127,-0.34L0.607,-0.34L0.607,-0.42L0.127,-0.42L0.127,-0.34ZM0.55,-0.7L0.55,-0L0.635,-0L0.635,-0.7L0.55,-0.7ZM0.08,-0.7L0.08,-0L0.165,-0L0.165,-0.7L0.08,-0.7Z" style="fill:white;fill-rule:nonzero;"/>
                    </g>
                    <g transform="matrix(56,0,0,56,1393.06,622.935)">
                        <rect x="0.08" y="-0.7" width="0.085" height="0.7" style="fill:white;fill-rule:nonzero;"/>
                    </g>
                    <g transform="matrix(56,0,0,56,1432.54,622.935)">
                        <path d="M0.13,-0.35C0.13,-0.405 0.142,-0.453 0.167,-0.494C0.191,-0.535 0.223,-0.567 0.262,-0.59C0.301,-0.613 0.344,-0.625 0.39,-0.625C0.423,-0.625 0.454,-0.621 0.482,-0.612C0.509,-0.603 0.534,-0.591 0.557,-0.576C0.58,-0.56 0.599,-0.542 0.615,-0.521L0.615,-0.633C0.586,-0.659 0.554,-0.678 0.519,-0.691C0.484,-0.704 0.441,-0.71 0.39,-0.71C0.341,-0.71 0.296,-0.701 0.254,-0.684C0.211,-0.666 0.174,-0.641 0.142,-0.609C0.11,-0.576 0.085,-0.538 0.067,-0.494C0.049,-0.45 0.04,-0.402 0.04,-0.35C0.04,-0.298 0.049,-0.25 0.067,-0.206C0.085,-0.162 0.11,-0.124 0.142,-0.092C0.174,-0.059 0.211,-0.034 0.254,-0.017C0.296,0.001 0.341,0.01 0.39,0.01C0.441,0.01 0.484,0.004 0.519,-0.009C0.554,-0.022 0.586,-0.041 0.615,-0.067L0.615,-0.179C0.599,-0.158 0.58,-0.14 0.557,-0.125C0.534,-0.109 0.509,-0.097 0.482,-0.088C0.454,-0.079 0.423,-0.075 0.39,-0.075C0.344,-0.075 0.301,-0.087 0.262,-0.11C0.223,-0.133 0.191,-0.166 0.167,-0.207C0.142,-0.248 0.13,-0.296 0.13,-0.35Z" style="fill:white;fill-rule:nonzero;"/>
                    </g>
                    <g transform="matrix(56,0,0,56,1475.38,622.935)">
                        <path d="M0.127,-0.34L0.607,-0.34L0.607,-0.42L0.127,-0.42L0.127,-0.34ZM0.55,-0.7L0.55,-0L0.635,-0L0.635,-0.7L0.55,-0.7ZM0.08,-0.7L0.08,-0L0.165,-0L0.165,-0.7L0.08,-0.7Z" style="fill:white;fill-rule:nonzero;"/>
                    </g>
                    <g transform="matrix(56,0,0,56,1519.9,622.935)">
                        <path d="M0.147,-0.21L0.517,-0.21L0.487,-0.29L0.177,-0.29L0.147,-0.21ZM0.33,-0.542L0.45,-0.26L0.458,-0.24L0.56,-0L0.655,-0L0.33,-0.735L0.005,-0L0.1,-0L0.204,-0.246L0.212,-0.264L0.33,-0.542Z" style="fill:white;fill-rule:nonzero;"/>
                    </g>
                    <g transform="matrix(56,0,0,56,1561.34,622.935)">
                        <path d="M0.61,-0.7L0.61,-0.179L0.08,-0.735L0.08,-0L0.165,-0L0.165,-0.521L0.695,0.035L0.695,-0.7L0.61,-0.7Z" style="fill:white;fill-rule:nonzero;"/>
                    </g>
                </g>
                <g transform="matrix(5.75625,0,0,5.75625,-7388.26,-1664.62)">
                    <g transform="matrix(56,0,0,56,1192.8,622.935)">
                        <path d="M0.124,-0.226L0.036,-0.164C0.051,-0.132 0.072,-0.102 0.099,-0.075C0.125,-0.048 0.156,-0.026 0.191,-0.01C0.226,0.007 0.263,0.015 0.304,0.015C0.334,0.015 0.363,0.01 0.391,0C0.418,-0.009 0.443,-0.023 0.465,-0.041C0.487,-0.058 0.504,-0.08 0.518,-0.106C0.531,-0.132 0.537,-0.161 0.537,-0.194C0.537,-0.225 0.532,-0.252 0.521,-0.275C0.51,-0.298 0.497,-0.317 0.48,-0.334C0.463,-0.351 0.444,-0.365 0.423,-0.376C0.402,-0.387 0.38,-0.397 0.359,-0.404C0.322,-0.417 0.291,-0.43 0.268,-0.443C0.245,-0.456 0.228,-0.469 0.217,-0.484C0.205,-0.498 0.2,-0.514 0.2,-0.532C0.2,-0.552 0.208,-0.57 0.223,-0.585C0.238,-0.6 0.262,-0.607 0.295,-0.607C0.318,-0.607 0.339,-0.603 0.357,-0.594C0.374,-0.585 0.39,-0.573 0.403,-0.558C0.416,-0.543 0.428,-0.526 0.437,-0.509L0.532,-0.563C0.521,-0.588 0.504,-0.611 0.483,-0.634C0.462,-0.657 0.436,-0.676 0.405,-0.691C0.374,-0.706 0.338,-0.713 0.297,-0.713C0.255,-0.713 0.218,-0.705 0.185,-0.689C0.152,-0.673 0.125,-0.651 0.106,-0.623C0.087,-0.594 0.077,-0.561 0.077,-0.524C0.077,-0.491 0.083,-0.464 0.096,-0.441C0.109,-0.418 0.125,-0.398 0.144,-0.383C0.163,-0.367 0.184,-0.354 0.205,-0.344C0.226,-0.333 0.246,-0.325 0.263,-0.319C0.292,-0.308 0.318,-0.298 0.341,-0.286C0.364,-0.276 0.381,-0.262 0.394,-0.247C0.406,-0.231 0.412,-0.21 0.412,-0.185C0.412,-0.157 0.402,-0.134 0.382,-0.117C0.362,-0.1 0.336,-0.091 0.304,-0.091C0.278,-0.091 0.254,-0.097 0.233,-0.108C0.211,-0.119 0.191,-0.135 0.173,-0.155C0.156,-0.175 0.139,-0.199 0.124,-0.226Z" style="fill:white;fill-rule:nonzero;"/>
                    </g>
                    <g transform="matrix(56,0,0,56,1229.71,622.935)">
                        <path d="M0.125,-0.321L0.625,-0.321L0.625,-0.43L0.125,-0.43L0.125,-0.321ZM0.548,-0.7L0.548,-0L0.666,-0L0.666,-0.7L0.548,-0.7ZM0.078,-0.7L0.078,-0L0.196,-0L0.196,-0.7L0.078,-0.7Z" style="fill:white;fill-rule:nonzero;"/>
                    </g>
                    <g transform="matrix(56,0,0,56,1275.85,622.935)">
                        <path d="M0.162,-0.18L0.532,-0.18L0.51,-0.28L0.185,-0.28L0.162,-0.18ZM0.345,-0.502L0.457,-0.242L0.459,-0.213L0.554,-0L0.688,-0L0.345,-0.739L0.003,-0L0.136,-0L0.233,-0.219L0.235,-0.245L0.345,-0.502Z" style="fill:white;fill-rule:nonzero;"/>
                    </g>
                    <g transform="matrix(56,0,0,56,1317.29,622.935)">
                        <path d="M0.163,-0.35C0.163,-0.398 0.173,-0.441 0.194,-0.478C0.215,-0.516 0.243,-0.546 0.279,-0.567C0.314,-0.588 0.355,-0.599 0.401,-0.599C0.448,-0.599 0.49,-0.588 0.526,-0.567C0.561,-0.546 0.589,-0.516 0.609,-0.478C0.629,-0.441 0.639,-0.398 0.639,-0.35C0.639,-0.302 0.629,-0.259 0.609,-0.222C0.588,-0.185 0.56,-0.155 0.525,-0.134C0.489,-0.112 0.448,-0.101 0.401,-0.101C0.355,-0.101 0.314,-0.112 0.279,-0.134C0.243,-0.155 0.215,-0.185 0.194,-0.222C0.173,-0.259 0.163,-0.302 0.163,-0.35ZM0.038,-0.35C0.038,-0.298 0.047,-0.25 0.065,-0.205C0.083,-0.16 0.108,-0.122 0.141,-0.089C0.174,-0.056 0.212,-0.031 0.257,-0.013C0.301,0.006 0.349,0.015 0.401,0.015C0.454,0.015 0.503,0.006 0.547,-0.013C0.591,-0.031 0.629,-0.056 0.662,-0.089C0.695,-0.122 0.72,-0.16 0.738,-0.205C0.756,-0.25 0.765,-0.298 0.765,-0.35C0.765,-0.403 0.756,-0.451 0.738,-0.495C0.72,-0.539 0.695,-0.577 0.662,-0.61C0.628,-0.642 0.59,-0.667 0.546,-0.686C0.502,-0.704 0.454,-0.713 0.401,-0.713C0.35,-0.713 0.302,-0.704 0.258,-0.686C0.213,-0.667 0.174,-0.642 0.141,-0.61C0.109,-0.577 0.083,-0.539 0.065,-0.495C0.047,-0.451 0.038,-0.403 0.038,-0.35Z" style="fill:white;fill-rule:nonzero;"/>
                    </g>
                    <g transform="matrix(56,0,0,56,1366.74,622.935)">
                        <path d="M0.078,-0.7L0.078,-0L0.474,-0L0.474,-0.106L0.196,-0.106L0.196,-0.7L0.078,-0.7Z" style="fill:white;fill-rule:nonzero;"/>
                    </g>
                    <g transform="matrix(56,0,0,56,1398.15,622.935)">
                        <rect x="0.078" y="-0.7" width="0.12" height="0.7" style="fill:white;fill-rule:nonzero;"/>
                    </g>
                    <g transform="matrix(56,0,0,56,1418.03,622.935)">
                        <path d="M0.589,-0.7L0.589,-0.23L0.078,-0.735L0.078,-0L0.194,-0L0.194,-0.47L0.705,0.035L0.705,-0.7L0.589,-0.7Z" style="fill:white;fill-rule:nonzero;"/>
                    </g>
                </g>
                <g transform="matrix(3.36627,0,0,3.36627,-4889.52,-964.096)">
                    <path d="M1528.45,638.634C1541.03,621.923 1552.23,599.007 1552.23,566.303C1552.23,562.838 1544.34,561.152 1544.21,557.43C1544.16,555.977 1547.96,555.517 1548.77,554.774C1551.11,552.638 1552.38,551.889 1553.14,548.847C1553.38,547.884 1553.37,545.964 1553.37,545.964C1553.37,545.964 1549.24,547.402 1547.63,547.423C1543.16,547.483 1538.83,544.025 1537.65,540.053C1535.68,533.444 1539.03,518.853 1547.52,518.853C1556,518.853 1559.32,523.432 1561.13,535.866C1564.64,532.819 1569.43,525.17 1569.43,514.295C1569.43,509.671 1565.52,507.819 1563.64,507.819C1547.39,507.819 1533.11,521.471 1531.59,524.435C1529.8,527.914 1530.68,532.169 1530.68,535.992C1530.68,540.407 1526.9,545.884 1522.48,545.884C1518.63,545.884 1512.5,543.811 1512.5,536.552C1512.5,519.613 1537.05,489.493 1542.81,493.949C1545.33,495.893 1533.32,510.643 1533.41,513.934C1537.2,509.097 1550.71,493.725 1565.85,493.725C1570.6,493.725 1583.59,496.901 1583.59,510.038C1583.59,527.683 1562.79,542.893 1562.79,542.893C1562.79,542.893 1563.72,552.17 1572.86,552.17C1577.12,552.17 1582.28,555.613 1581.93,563.534C1581.7,568.815 1576.78,570.177 1572.71,569.637C1570.06,569.286 1566.42,568.411 1566.42,568.411C1566.42,597.73 1560.88,620.125 1553.07,637.07C1664.39,623.724 1752.67,527.177 1752.67,412.692C1752.67,289.299 1650.11,186.743 1526.72,186.743C1403.33,186.743 1300.77,289.299 1300.77,412.692C1300.77,536.086 1403.33,638.641 1526.72,638.641C1527.3,638.641 1527.88,638.639 1528.45,638.634ZM1491.26,463.925C1484.38,470.804 1495.54,483.01 1495.54,485.869C1495.54,492.951 1466.39,506.682 1466.39,522.085C1466.39,527.244 1468.63,529.861 1471.89,533.637C1473.36,535.333 1475.52,537.182 1477.93,537.19C1481.92,537.203 1486.46,532.431 1489.1,530.785C1488.6,537.065 1482.55,540.178 1478.69,544.322C1472,551.496 1451.46,578.694 1451.65,586.204C1451.77,590.844 1454.96,594.667 1458.42,594.667C1467.7,594.667 1471.53,586.743 1472.18,585.793C1475.52,580.889 1482.68,574.971 1483.4,575.701C1484.05,576.371 1483.77,578.348 1483.81,579.741C1483.96,584.289 1483.24,590.326 1486.49,591.624C1489.36,592.773 1503.28,590.625 1503.28,587.53C1503.28,582.57 1499.99,559.537 1507.76,532.449C1508.21,530.862 1507.85,528.982 1508.51,527.458C1510.3,523.284 1514.71,519.651 1514.28,514.634C1514.16,513.275 1512.58,512.417 1511.68,511.535C1510.07,509.963 1508.7,507.753 1505.93,506.634C1504.85,506.195 1503.55,505.924 1501.94,505.924C1490.53,505.924 1486.43,511.8 1482.56,514.004C1481.78,514.447 1476,521.425 1476,518.853C1476,515.795 1484.68,509.339 1491.69,502.189C1495.58,498.226 1500.86,493.353 1502.17,493.353C1506.57,493.353 1504.7,494.999 1510.29,494.999C1513.7,494.999 1519.67,491.81 1519.67,485.116C1519.67,479.179 1514.72,476.104 1510.19,473.656C1508.25,472.613 1504.64,470.162 1502.92,468.793C1500.05,466.51 1493.51,461.677 1491.26,463.925ZM1484.59,550.748C1481.99,550.748 1476.02,567.431 1475.33,570.051C1477.59,567.797 1480.1,566.779 1481.19,565.36C1484.89,560.539 1485.54,550.748 1484.59,550.748ZM1548.17,525.371C1542.17,525.371 1542.98,533.701 1542.98,535.776C1542.98,540.474 1546.24,541.786 1548.21,541.786C1550.78,541.786 1551.31,541.407 1553.1,540.301C1552.74,537.946 1552.59,536.804 1552.01,534.112C1551.63,532.363 1550.63,525.371 1548.17,525.371ZM1643.26,441.161C1643.26,478.173 1613.25,476.808 1613.25,500.734C1613.25,511.512 1624.29,521.562 1635.07,521.562C1668.78,521.562 1686.93,480.27 1686.93,451.311C1686.93,412.827 1642.84,361.842 1620.61,361.842C1619.7,361.842 1618.46,362.877 1618.46,363.79C1618.46,367.227 1629.59,373.507 1627.16,375.937C1625.34,377.751 1622.47,375.388 1621,376.857C1615.57,382.282 1643.26,400.154 1643.26,441.161ZM1541.15,468.758C1540.12,468.592 1537.83,471.938 1534.97,471.562C1533.56,471.375 1527.85,469.884 1527.12,471.605C1526.02,474.167 1529.03,478.328 1530.56,479.959C1532.4,481.926 1534.19,485.695 1538.03,487.956C1541.87,490.217 1546.96,487.238 1548.31,485.109C1549.9,482.59 1547.89,478.571 1545.98,476.727C1545.08,475.852 1541.65,473.772 1541.12,472.56C1540.63,471.434 1542.17,468.924 1541.15,468.758ZM1566.23,472.535C1565.26,477.421 1552.7,483.426 1555.11,485.837C1556.77,487.493 1570.2,480.809 1571.78,480.82C1575.16,480.843 1578.08,483.361 1581.74,482.026C1585.56,480.63 1588.9,475.973 1587.59,471.746C1587.12,470.245 1585.92,469.551 1585.16,468.285C1580.98,461.29 1572.53,457.861 1564.65,456.609C1562.5,456.267 1556.51,455.001 1555.81,458.375C1555.4,460.376 1560.21,464.224 1561.44,465.701C1563.06,467.659 1564.09,471.221 1566.23,472.535ZM1406.61,401.961C1406.61,367.38 1437.38,371.323 1437.38,343.806C1437.38,333.028 1426.34,322.979 1415.56,322.979C1381.85,322.979 1361.39,355.576 1361.39,393.229C1361.39,444.187 1407.78,482.698 1430.02,482.698C1430.93,482.698 1432.17,481.663 1432.17,480.75C1432.17,477.313 1421.04,471.033 1423.47,468.603C1425.28,466.789 1428.15,469.152 1429.63,467.683C1435.33,461.974 1406.61,455.253 1406.61,401.961ZM1504.29,398.415C1499.42,405.941 1494.12,407.131 1490.56,412.692C1486.52,412.797 1474.22,411.995 1473.73,417.803C1509.2,423.068 1521.97,444.46 1548.61,444.46C1553.53,444.46 1564,433.433 1567.03,429.548C1572.56,422.448 1578.48,394.037 1575.85,391.47C1571.81,387.525 1545.22,420.79 1524.37,420.79C1512.8,420.79 1508.97,415.134 1498.77,415.106C1511.68,405.405 1518.58,403.706 1531.43,403.706C1536.64,403.706 1547.03,399.914 1547.03,393.153C1547.03,383.54 1533.54,378.972 1516.14,378.972C1507.26,378.972 1499.19,382.056 1492.71,382.34C1489.45,382.482 1474.57,380.46 1470.59,380.508C1469.09,380.526 1466.39,380.632 1466.39,382.344C1466.39,388.126 1498.61,397.356 1504.29,398.415ZM1490.86,351.688C1490.86,356.037 1501.64,359.532 1501.64,367.135C1501.64,369.604 1497.28,371.319 1500.11,373.962C1502.39,376.083 1520.68,366.543 1520.68,357.181C1520.68,351.707 1499.64,347.361 1494.17,347.361C1492.12,347.361 1490.86,350.048 1490.86,351.688ZM1492.76,245.308L1492.43,245.558C1489.03,248.182 1485.68,250.8 1485.68,253.094C1485.68,260.477 1488.17,261.381 1488.17,263.387C1488.17,266.282 1490.68,267.905 1496.2,267.905C1499.04,267.905 1504.82,265.668 1505.59,266.674C1506.49,267.852 1500.15,269.288 1495.71,271.768C1494.13,272.644 1487.26,277.507 1486.49,276.735C1485.72,275.964 1489.19,273.091 1489.19,270.704C1489.19,269.462 1488.5,268.669 1486.4,268.669C1481.02,268.669 1459.63,291.912 1459.63,299.55C1459.63,303.433 1461.43,306.092 1464.05,306.092C1480.62,306.092 1491.46,286.668 1496.19,286.668C1486.83,297.154 1476.34,319.128 1476.34,331.386C1476.34,336.371 1482.15,337.744 1487.13,337.744C1501.86,337.744 1521.01,323.238 1531.86,323.238C1536.44,323.238 1567.09,357.157 1586.69,357.157C1590.3,357.157 1591.38,352.908 1591.38,344.859C1591.38,336.81 1583.96,295.035 1578.22,295.035C1577.09,295.035 1577.79,297.088 1577.52,298.356C1576.3,297.574 1574.05,292.068 1572.69,292.068C1570.21,292.068 1571.39,300.242 1571.6,303.991C1571.92,309.765 1572.61,315.334 1572.97,319.763C1573.26,323.292 1573.63,329.101 1572.64,330.089C1571.65,331.077 1563.98,325.57 1562.3,324.668C1556.9,321.768 1548.78,317.249 1545.56,311.84C1544.18,309.527 1546,306.208 1544.2,304.189C1542.71,302.525 1540.02,302.863 1538.3,301.586C1536.83,300.503 1536.62,298.995 1535.61,297.649C1533.5,294.846 1530.98,292.836 1529.51,289.569C1527.76,285.674 1524.59,279.667 1527.76,276.499C1533.49,270.763 1532.24,267.264 1532.11,265.091C1532.02,263.669 1531.18,261.26 1529.74,260.718C1528.25,260.161 1526.34,261.165 1525.04,260.024C1524.15,259.244 1519.18,251.853 1517.91,248.93C1517.07,246.978 1515.71,245.448 1515.01,245.841C1514.72,246.003 1514.08,244.665 1513.27,243.987C1512.03,242.935 1510.49,242.178 1509.91,241.078C1509.4,240.103 1509.63,239.042 1509.46,237.998C1509.27,236.791 1508.64,235.668 1508.6,234.433C1508.57,233.164 1509.26,232.092 1509.46,230.869C1509.77,229.04 1509.54,227.016 1509.54,225.165C1509.54,221.871 1510.45,216.683 1505.74,216.623C1504.42,216.606 1504.2,217.764 1502.41,217.764C1499.33,217.764 1500.43,218.606 1499.47,218.817C1498.63,219.003 1498.19,218.063 1497.29,218.737C1496.17,219.571 1496.65,229.218 1497.29,231.582C1497.93,233.977 1499.51,234.793 1499.51,237.772C1499.51,240.066 1496.16,242.685 1492.76,245.308ZM1505.26,292.183C1503.56,292.044 1498.58,301.63 1497.6,304.541C1496.53,307.751 1495.03,310.871 1493.84,314.047C1493.23,315.676 1490.97,320.396 1492.57,321.95C1493.36,322.711 1494.97,322.266 1495.76,321.798C1502.24,317.943 1505.34,317.917 1505.34,315.857C1505.34,309.273 1503.7,304.415 1503.7,300.701C1503.7,296.126 1505.81,292.228 1505.26,292.183ZM1520.7,310.931C1521.56,309.964 1521.26,308.586 1522.44,307.823C1523.04,307.439 1523.62,307.731 1524.04,306.989C1524.46,306.251 1522.11,303.413 1521.27,303.534C1520.18,303.691 1515.73,310.198 1515.89,311.277C1516.07,312.469 1520.19,311.507 1520.7,310.931ZM1512.87,288.822C1508.53,290.565 1508.44,296.465 1508.59,300.263C1508.63,301.304 1508.85,305.353 1510.49,304.859C1511.61,304.522 1512.29,303.069 1512.88,302.164C1514.63,299.494 1516.43,296.391 1516.43,293.133C1516.43,291.1 1515.86,287.622 1512.87,288.822ZM1539.96,229.918C1537.86,228.271 1537.06,229.788 1536.42,231.819C1535.57,234.528 1535.24,236.003 1535.24,238.949C1535.24,241.895 1538.41,246.425 1541.51,247.841C1540.59,249.112 1538.21,251.565 1538.21,253.659C1538.21,256.216 1539.36,256.306 1540.27,256.306C1546.61,256.306 1549.98,252.444 1552.62,250.908C1554.4,249.876 1578.11,246.127 1574.87,236.81C1574.38,235.408 1573.28,234.542 1572.32,233.474C1571.44,232.485 1570.9,231.281 1569.66,230.664C1566.31,228.989 1561.48,229.802 1558.02,230.687C1555.98,231.209 1554.02,232.076 1551.84,231.587C1550.36,231.253 1549.21,230.11 1547.8,229.616C1546.87,229.289 1546.1,229.165 1545.19,228.737C1543.14,227.781 1540.82,226.998 1539.96,229.918Z" style="fill:white;"/>
                </g>
                <g transform="matrix(3.61507,0,0,3.61507,-511.05,2199.9)">
                    <g transform="matrix(77.3382,0,0,77.3382,0,0)">
                        <path d="M0.356,-0.244L0.166,-0.7L0.001,-0.7L0.356,0.041L0.711,-0.7L0.545,-0.7L0.356,-0.244Z" style="fill:white;fill-rule:nonzero;"/>
                    </g>
                    <g transform="matrix(77.3382,0,0,77.3382,51.8166,0)">
                        <path d="M0.173,-0.159L0.543,-0.159L0.526,-0.272L0.19,-0.272L0.173,-0.159ZM0.356,-0.473L0.461,-0.23L0.459,-0.194L0.549,-0L0.711,-0L0.356,-0.741L0.001,-0L0.162,-0L0.254,-0.2L0.251,-0.232L0.356,-0.473Z" style="fill:white;fill-rule:nonzero;"/>
                    </g>
                    <g transform="matrix(77.3382,0,0,77.3382,112.991,0)">
                        <path d="M0.076,-0.7L0.076,-0L0.498,-0L0.498,-0.125L0.219,-0.125L0.219,-0.7L0.076,-0.7Z" style="fill:white;fill-rule:nonzero;"/>
                    </g>
                    <g transform="matrix(77.3382,0,0,77.3382,158.157,0)">
                        <path d="M0.168,-0L0.521,-0L0.521,-0.121L0.168,-0.121L0.168,-0ZM0.168,-0.579L0.521,-0.579L0.521,-0.7L0.168,-0.7L0.168,-0.579ZM0.168,-0.312L0.501,-0.312L0.501,-0.431L0.168,-0.431L0.168,-0.312ZM0.076,-0.7L0.076,-0L0.214,-0L0.214,-0.7L0.076,-0.7Z" style="fill:white;fill-rule:nonzero;"/>
                    </g>
                    <g transform="matrix(77.3382,0,0,77.3382,209.664,0)">
                        <path d="M0.574,-0.7L0.574,-0.266L0.076,-0.735L0.076,-0L0.214,-0L0.214,-0.434L0.712,0.035L0.712,-0.7L0.574,-0.7Z" style="fill:white;fill-rule:nonzero;"/>
                    </g>
                    <g transform="matrix(77.3382,0,0,77.3382,276.794,0)">
                        <path d="M0.191,-0.35C0.191,-0.397 0.202,-0.437 0.223,-0.471C0.244,-0.505 0.271,-0.531 0.305,-0.55C0.339,-0.568 0.376,-0.577 0.416,-0.577C0.449,-0.577 0.479,-0.573 0.505,-0.564C0.531,-0.555 0.555,-0.544 0.576,-0.529C0.597,-0.514 0.615,-0.498 0.63,-0.481L0.63,-0.642C0.601,-0.665 0.57,-0.682 0.537,-0.695C0.503,-0.708 0.46,-0.714 0.409,-0.714C0.356,-0.714 0.306,-0.705 0.261,-0.688C0.215,-0.671 0.175,-0.646 0.141,-0.613C0.108,-0.58 0.082,-0.542 0.064,-0.498C0.045,-0.453 0.036,-0.404 0.036,-0.35C0.036,-0.296 0.045,-0.247 0.064,-0.203C0.082,-0.158 0.108,-0.12 0.141,-0.087C0.175,-0.054 0.215,-0.029 0.261,-0.012C0.306,0.005 0.356,0.014 0.409,0.014C0.46,0.014 0.503,0.008 0.537,-0.005C0.57,-0.018 0.601,-0.035 0.63,-0.058L0.63,-0.219C0.615,-0.202 0.597,-0.186 0.576,-0.171C0.555,-0.156 0.531,-0.145 0.505,-0.136C0.479,-0.127 0.449,-0.123 0.416,-0.123C0.376,-0.123 0.339,-0.132 0.305,-0.151C0.271,-0.169 0.244,-0.195 0.223,-0.23C0.202,-0.264 0.191,-0.304 0.191,-0.35Z" style="fill:white;fill-rule:nonzero;"/>
                    </g>
                    <g transform="matrix(77.3382,0,0,77.3382,336.808,0)">
                        <rect x="0.076" y="-0.7" width="0.145" height="0.7" style="fill:white;fill-rule:nonzero;"/>
                    </g>
                    <g transform="matrix(77.3382,0,0,77.3382,365.887,0)">
                        <path d="M0.173,-0.159L0.543,-0.159L0.526,-0.272L0.19,-0.272L0.173,-0.159ZM0.356,-0.473L0.461,-0.23L0.459,-0.194L0.549,-0L0.711,-0L0.356,-0.741L0.001,-0L0.162,-0L0.254,-0.2L0.251,-0.232L0.356,-0.473Z" style="fill:white;fill-rule:nonzero;"/>
                    </g>
                </g>
            </g>
        </g>
    </g>
</svg>
