<?xml version="1.0" encoding="UTF-8" standalone="no"?>
<!DOCTYPE svg PUBLIC "-//W3C//DTD SVG 1.1//EN" "http://www.w3.org/Graphics/SVG/1.1/DTD/svg11.dtd">
<svg width="100%" height="100%" viewBox="0 0 458 571" version="1.1" xmlns="http://www.w3.org/2000/svg" xmlns:xlink="http://www.w3.org/1999/xlink" xml:space="preserve" xmlns:serif="http://www.serif.com/" style="fill-rule:evenodd;clip-rule:evenodd;stroke-linejoin:round;stroke-miterlimit:2;">
    <g transform="matrix(1,0,0,1,-180.67,-186.743)">
        <g transform="matrix(0.297065,0,0,0.297065,337.624,286.399)">
            <g id="blanco">
                <g id="ESCRITO">
                    <g transform="matrix(3.44691,0,0,3.44691,-4640.6,-570.261)">
                        <g transform="matrix(56,0,0,56,1192.8,622.935)">
                            <path d="M0.724,-0.301L0.532,-0.735L0.342,-0.301L0.204,-0.7L0.004,-0.7L0.307,0.041L0.532,-0.381L0.758,0.041L1.061,-0.7L0.86,-0.7L0.724,-0.301Z" style="fill:white;fill-rule:nonzero;"/>
                        </g>
                        <g transform="matrix(56,0,0,56,1256.92,622.935)">
                            <path d="M0.069,-0.7L0.069,-0.23C0.069,-0.186 0.076,-0.148 0.091,-0.115C0.105,-0.082 0.125,-0.056 0.151,-0.035C0.176,-0.014 0.206,0.002 0.24,0.013C0.274,0.024 0.311,0.029 0.35,0.029C0.389,0.029 0.426,0.024 0.461,0.013C0.495,0.002 0.525,-0.014 0.551,-0.035C0.576,-0.056 0.596,-0.082 0.611,-0.115C0.625,-0.148 0.632,-0.186 0.632,-0.23L0.632,-0.7L0.463,-0.7L0.463,-0.242C0.463,-0.207 0.454,-0.178 0.435,-0.156C0.416,-0.134 0.388,-0.123 0.35,-0.123C0.313,-0.123 0.285,-0.134 0.266,-0.156C0.247,-0.178 0.238,-0.207 0.238,-0.242L0.238,-0.7L0.069,-0.7Z" style="fill:white;fill-rule:nonzero;"/>
                        </g>
                        <g transform="matrix(56,0,0,56,1321.94,622.935)">
                            <path d="M0.057,-0.549L0.335,-0.549L0.009,-0L0.57,-0L0.57,-0.145L0.275,-0.145L0.606,-0.7L0.057,-0.7L0.057,-0.549Z" style="fill:white;fill-rule:nonzero;"/>
                        </g>
                        <g transform="matrix(56,0,0,56,1361.14,622.935)">
                            <path d="M0.121,-0.293L0.65,-0.293L0.65,-0.445L0.121,-0.445L0.121,-0.293ZM0.544,-0.7L0.544,-0L0.713,-0L0.713,-0.7L0.544,-0.7ZM0.074,-0.7L0.074,-0L0.243,-0L0.243,-0.7L0.074,-0.7Z" style="fill:white;fill-rule:nonzero;"/>
                        </g>
                        <g transform="matrix(56,0,0,56,1409.63,622.935)">
                            <rect x="0.074" y="-0.7" width="0.172" height="0.7" style="fill:white;fill-rule:nonzero;"/>
                        </g>
                        <g transform="matrix(56,0,0,56,1453.31,622.935)">
                            <path d="M0.218,-0.35C0.218,-0.393 0.228,-0.43 0.247,-0.461C0.266,-0.492 0.292,-0.515 0.324,-0.531C0.355,-0.547 0.39,-0.555 0.428,-0.555C0.461,-0.555 0.491,-0.551 0.516,-0.543C0.541,-0.534 0.564,-0.523 0.584,-0.508C0.604,-0.494 0.622,-0.479 0.637,-0.463L0.637,-0.645C0.609,-0.667 0.578,-0.684 0.545,-0.697C0.512,-0.71 0.469,-0.716 0.418,-0.716C0.362,-0.716 0.31,-0.707 0.263,-0.69C0.216,-0.673 0.175,-0.648 0.141,-0.615C0.107,-0.582 0.081,-0.544 0.062,-0.499C0.043,-0.454 0.034,-0.405 0.034,-0.35C0.034,-0.295 0.043,-0.246 0.062,-0.201C0.081,-0.156 0.107,-0.118 0.141,-0.085C0.175,-0.052 0.216,-0.027 0.263,-0.01C0.31,0.007 0.362,0.016 0.418,0.016C0.469,0.016 0.512,0.01 0.545,-0.003C0.578,-0.016 0.609,-0.033 0.637,-0.055L0.637,-0.237C0.622,-0.221 0.604,-0.206 0.584,-0.192C0.564,-0.178 0.541,-0.167 0.516,-0.158C0.491,-0.149 0.461,-0.145 0.428,-0.145C0.39,-0.145 0.355,-0.153 0.324,-0.169C0.292,-0.185 0.266,-0.209 0.247,-0.239C0.228,-0.271 0.218,-0.307 0.218,-0.35Z" style="fill:white;fill-rule:nonzero;"/>
                        </g>
                        <g transform="matrix(56,0,0,56,1497.05,622.935)">
                            <path d="M0.121,-0.293L0.65,-0.293L0.65,-0.445L0.121,-0.445L0.121,-0.293ZM0.544,-0.7L0.544,-0L0.713,-0L0.713,-0.7L0.544,-0.7ZM0.074,-0.7L0.074,-0L0.243,-0L0.243,-0.7L0.074,-0.7Z" style="fill:white;fill-rule:nonzero;"/>
                        </g>
                        <g transform="matrix(56,0,0,56,1545.55,622.935)">
                            <path d="M0.184,-0.135L0.554,-0.135L0.543,-0.264L0.196,-0.264L0.184,-0.135ZM0.367,-0.443L0.466,-0.216L0.46,-0.173L0.544,-0L0.736,-0L0.367,-0.744L-0.001,-0L0.19,-0L0.277,-0.18L0.269,-0.217L0.367,-0.443Z" style="fill:white;fill-rule:nonzero;"/>
                        </g>
                        <g transform="matrix(56,0,0,56,1591.19,622.935)">
                            <path d="M0.557,-0.7L0.557,-0.306L0.074,-0.735L0.074,-0L0.236,-0L0.236,-0.394L0.72,0.035L0.72,-0.7L0.557,-0.7Z" style="fill:white;fill-rule:nonzero;"/>
                        </g>
                    </g>
                    <g transform="matrix(3.36627,0,0,3.36627,-1136.54,-964.096)">
                        <path d="M413.575,638.634C426.153,621.923 437.349,599.007 437.349,566.303C437.349,562.838 429.458,561.152 429.333,557.43C429.284,555.977 433.083,555.517 433.894,554.774C436.23,552.638 437.5,551.889 438.258,548.847C438.498,547.884 438.487,545.964 438.487,545.964C438.487,545.964 434.358,547.402 432.753,547.423C428.281,547.483 423.955,544.025 422.769,540.053C420.796,533.444 424.15,518.853 432.637,518.853C441.123,518.853 444.436,523.432 446.248,535.866C449.757,532.819 454.552,525.17 454.552,514.295C454.552,509.671 450.645,507.819 448.757,507.819C432.515,507.819 418.23,521.471 416.708,524.435C414.92,527.914 415.798,532.169 415.798,535.992C415.798,540.407 412.017,545.884 407.602,545.884C403.749,545.884 397.623,543.811 397.623,536.552C397.623,519.613 422.171,489.493 427.932,493.949C430.445,495.893 418.441,510.643 418.533,513.934C422.324,509.097 435.831,493.725 450.966,493.725C455.715,493.725 468.715,496.901 468.715,510.038C468.715,527.683 447.91,542.893 447.91,542.893C447.91,542.893 448.842,552.17 457.979,552.17C462.238,552.17 467.401,555.613 467.053,563.534C466.821,568.815 461.902,570.177 457.827,569.637C455.179,569.286 451.54,568.411 451.54,568.411C451.54,597.73 446.004,620.125 438.194,637.07C549.51,623.724 637.79,527.177 637.79,412.692C637.79,289.299 535.235,186.743 411.842,186.743C288.448,186.743 185.893,289.299 185.893,412.692C185.893,536.086 288.448,638.641 411.842,638.641C412.421,638.641 413.001,638.639 413.575,638.634ZM376.378,463.925C369.499,470.804 380.659,483.01 380.659,485.869C380.659,492.951 351.514,506.682 351.514,522.085C351.514,527.244 353.745,529.861 357.011,533.637C358.479,535.333 360.636,537.182 363.053,537.19C367.037,537.203 371.584,532.431 374.223,530.785C373.723,537.065 367.67,540.178 363.807,544.322C357.116,551.496 336.58,578.694 336.77,586.204C336.887,590.844 340.078,594.667 343.537,594.667C352.826,594.667 356.654,586.743 357.301,585.793C360.637,580.889 367.806,574.971 368.519,575.701C369.173,576.371 368.887,578.348 368.933,579.741C369.084,584.289 368.364,590.326 371.609,591.624C374.481,592.773 388.403,590.625 388.403,587.53C388.403,582.57 385.107,559.537 392.876,532.449C393.331,530.862 392.973,528.982 393.626,527.458C395.418,523.284 399.832,519.651 399.4,514.634C399.282,513.275 397.702,512.417 396.8,511.535C395.188,509.963 393.817,507.753 391.053,506.634C389.97,506.195 388.674,505.924 387.065,505.924C375.654,505.924 371.546,511.8 367.676,514.004C366.9,514.447 361.118,521.425 361.118,518.853C361.118,515.795 369.798,509.339 376.815,502.189C380.704,498.226 385.981,493.353 387.294,493.353C391.69,493.353 389.816,494.999 395.407,494.999C398.82,494.999 404.787,491.81 404.787,485.116C404.787,479.179 399.842,476.104 395.307,473.656C393.375,472.613 389.759,470.162 388.037,468.793C385.168,466.51 378.627,461.677 376.378,463.925ZM369.707,550.748C367.114,550.748 361.136,567.431 360.451,570.051C362.706,567.797 365.219,566.779 366.309,565.36C370.015,560.539 370.661,550.748 369.707,550.748ZM433.292,525.371C427.295,525.371 428.1,533.701 428.1,535.776C428.1,540.474 431.356,541.786 433.328,541.786C435.902,541.786 436.431,541.407 438.217,540.301C437.862,537.946 437.713,536.804 437.13,534.112C436.752,532.363 435.756,525.371 433.292,525.371ZM528.379,441.161C528.379,478.173 498.37,476.808 498.37,500.734C498.37,511.512 509.409,521.562 520.187,521.562C553.9,521.562 572.052,480.27 572.052,451.311C572.052,412.827 527.961,361.842 505.73,361.842C504.817,361.842 503.577,362.877 503.577,363.79C503.577,367.227 514.707,373.507 512.277,375.937C510.463,377.751 507.589,375.388 506.12,376.857C500.695,382.282 528.379,400.154 528.379,441.161ZM426.268,468.758C425.243,468.592 422.952,471.938 420.089,471.562C418.68,471.375 412.972,469.884 412.236,471.605C411.138,474.167 414.154,478.328 415.683,479.959C417.526,481.926 419.313,485.695 423.152,487.956C426.99,490.217 432.083,487.238 433.43,485.109C435.024,482.59 433.013,478.571 431.101,476.727C430.197,475.852 426.767,473.772 426.242,472.56C425.755,471.434 427.294,468.924 426.268,468.758ZM451.353,472.535C450.382,477.421 437.823,483.426 440.234,485.837C441.89,487.493 455.319,480.809 456.896,480.82C460.28,480.843 463.203,483.361 466.861,482.026C470.683,480.63 474.026,475.973 472.708,471.746C472.24,470.245 471.037,469.551 470.28,468.285C466.095,461.29 457.65,457.861 449.776,456.609C447.622,456.267 441.632,455.001 440.934,458.375C440.519,460.376 445.328,464.224 446.556,465.701C448.185,467.659 449.213,471.221 451.353,472.535ZM291.73,401.961C291.73,367.38 322.495,371.323 322.495,343.806C322.495,333.028 311.456,322.979 300.678,322.979C266.965,322.979 246.506,355.576 246.506,393.229C246.506,444.187 292.904,482.698 315.135,482.698C316.048,482.698 317.288,481.663 317.288,480.75C317.288,477.313 306.158,471.033 308.588,468.603C310.402,466.789 313.276,469.152 314.745,467.683C320.454,461.974 291.73,455.253 291.73,401.961ZM389.414,398.415C384.539,405.941 379.241,407.131 375.684,412.692C371.639,412.797 359.345,411.995 358.846,417.803C394.319,423.068 407.093,444.46 433.727,444.46C438.652,444.46 449.122,433.433 452.149,429.548C457.682,422.448 463.6,394.037 460.972,391.47C456.932,387.525 430.341,420.79 409.487,420.79C397.917,420.79 394.086,415.134 383.893,415.106C396.805,405.405 403.703,403.706 416.547,403.706C421.762,403.706 432.149,399.914 432.149,393.153C432.149,383.54 418.663,378.972 401.259,378.972C392.381,378.972 384.311,382.056 377.827,382.34C374.572,382.482 359.693,380.46 355.705,380.508C354.214,380.526 351.514,380.632 351.514,382.344C351.514,388.126 383.73,397.356 389.414,398.415ZM375.979,351.688C375.979,356.037 386.765,359.532 386.765,367.135C386.765,369.604 382.398,371.319 385.234,373.962C387.51,376.083 405.803,366.543 405.803,357.181C405.803,351.707 384.766,347.361 379.291,347.361C377.242,347.361 375.979,350.048 375.979,351.688ZM377.878,245.308L377.554,245.558C374.152,248.182 370.803,250.8 370.803,253.094C370.803,260.477 373.291,261.381 373.291,263.387C373.291,266.282 375.798,267.905 381.322,267.905C384.156,267.905 389.945,265.668 390.713,266.674C391.614,267.852 385.275,269.288 380.826,271.768C379.256,272.644 372.38,277.507 371.609,276.735C370.837,275.964 374.309,273.091 374.309,270.704C374.309,269.462 373.618,268.669 371.517,268.669C366.137,268.669 344.755,291.912 344.755,299.55C344.755,303.433 346.55,306.092 349.175,306.092C365.736,306.092 376.581,286.668 381.311,286.668C371.954,297.154 361.459,319.128 361.459,331.386C361.459,336.371 367.271,337.744 372.256,337.744C386.98,337.744 406.128,323.238 416.977,323.238C421.562,323.238 452.206,357.157 471.815,357.157C475.419,357.157 476.498,352.908 476.498,344.859C476.498,336.81 469.079,295.035 463.342,295.035C462.211,295.035 462.906,297.088 462.641,298.356C461.416,297.574 459.174,292.068 457.811,292.068C455.327,292.068 456.51,300.242 456.719,303.991C457.04,309.765 457.731,315.334 458.093,319.763C458.382,323.292 458.746,329.101 457.757,330.089C456.769,331.077 449.098,325.57 447.419,324.668C442.022,321.768 433.901,317.249 430.68,311.84C429.303,309.527 431.125,306.208 429.317,304.189C427.826,302.525 425.143,302.863 423.417,301.586C421.954,300.503 421.74,298.995 420.729,297.649C418.623,294.846 416.105,292.836 414.631,289.569C412.876,285.674 409.71,279.667 412.877,276.499C418.613,270.763 417.358,267.264 417.227,265.091C417.142,263.669 416.303,261.26 414.86,260.718C413.373,260.161 411.461,261.165 410.158,260.024C409.266,259.244 404.297,251.853 403.033,248.93C402.189,246.978 400.831,245.448 400.127,245.841C399.837,246.003 399.195,244.665 398.394,243.987C397.151,242.935 395.605,242.178 395.031,241.078C394.522,240.103 394.754,239.042 394.583,237.998C394.386,236.791 393.757,235.668 393.724,234.433C393.691,233.164 394.379,232.092 394.583,230.869C394.889,229.04 394.661,227.016 394.661,225.165C394.661,221.871 395.574,216.683 390.858,216.623C389.544,216.606 389.321,217.764 387.531,217.764C384.449,217.764 385.553,218.606 384.594,218.817C383.747,219.003 383.308,218.063 382.406,218.737C381.291,219.571 381.772,229.218 382.406,231.582C383.048,233.977 384.628,234.793 384.628,237.772C384.628,240.066 381.279,242.685 377.878,245.308ZM390.383,292.183C388.682,292.044 383.698,301.63 382.723,304.541C381.646,307.751 380.149,310.871 378.96,314.047C378.35,315.676 376.093,320.396 377.693,321.95C378.476,322.711 380.09,322.266 380.877,321.798C387.363,317.943 390.459,317.917 390.459,315.857C390.459,309.273 388.821,304.415 388.821,300.701C388.821,296.126 390.932,292.228 390.383,292.183ZM405.821,310.931C406.683,309.964 406.378,308.586 407.562,307.823C408.159,307.439 408.742,307.731 409.161,306.989C409.578,306.251 407.233,303.413 406.394,303.534C405.302,303.691 400.853,310.198 401.013,311.277C401.189,312.469 405.307,311.507 405.821,310.931ZM397.988,288.822C393.645,290.565 393.556,296.465 393.713,300.263C393.756,301.304 393.97,305.353 395.612,304.859C396.731,304.522 397.415,303.069 398.005,302.164C399.747,299.494 401.547,296.391 401.553,293.133C401.556,291.1 400.977,287.622 397.988,288.822ZM425.08,229.918C422.984,228.271 422.177,229.788 421.54,231.819C420.69,234.528 420.359,236.003 420.359,238.949C420.359,241.895 423.531,246.425 426.634,247.841C425.712,249.112 423.329,251.565 423.329,253.659C423.329,256.216 424.485,256.306 425.389,256.306C431.73,256.306 435.097,252.444 437.745,250.908C439.524,249.876 463.225,246.127 459.989,236.81C459.502,235.408 458.396,234.542 457.441,233.474C456.558,232.485 456.017,231.281 454.783,230.664C451.431,228.989 446.602,229.802 443.142,230.687C441.098,231.209 439.14,232.076 436.963,231.587C435.478,231.253 434.333,230.11 432.923,229.616C431.993,229.289 431.221,229.165 430.307,228.737C428.263,227.781 425.938,226.998 425.08,229.918Z" style="fill:white;"/>
                    </g>
                </g>
            </g>
        </g>
    </g>
</svg>
