<?xml version="1.0" encoding="UTF-8"?>
<!DOCTYPE svg  PUBLIC '-//W3C//DTD SVG 1.1//EN'  'http://www.w3.org/Graphics/SVG/1.1/DTD/svg11.dtd'>
<svg clip-rule="evenodd" fill-rule="evenodd" stroke-linejoin="round" stroke-miterlimit="2" version="1.1" viewBox="0 0 1181 292" xml:space="preserve" xmlns="http://www.w3.org/2000/svg">
    <g transform="translate(-333.54 -413.96)">
        <g transform="matrix(.19144 0 0 .19144 371.68 373.56)">
                    <g transform="matrix(10.717 0 0 10.717 -11182 -5447.1)">
                        <g transform="matrix(56 0 0 56 1192.8 622.94)">
                            <path d="m0.703-0.185-0.208-0.55-0.204 0.55-0.186-0.515h-0.095l0.275 0.735 0.21-0.544 0.21 0.544 0.275-0.735h-0.095l-0.182 0.515z" fill="#fff" fill-rule="nonzero"/>
                        </g>
                        <g transform="matrix(56 0 0 56 1252.7 622.94)">
                            <path d="m0.075-0.7v0.47c0 0.035 6e-3 0.067 0.017 0.096 0.01 0.029 0.026 0.055 0.048 0.076 0.021 0.021 0.046 0.038 0.075 0.05s0.062 0.018 0.098 0.018 0.069-6e-3 0.098-0.018 0.055-0.029 0.076-0.05c0.02-0.021 0.037-0.047 0.048-0.076s0.016-0.061 0.016-0.096v-0.47h-0.085v0.47c0 0.048-0.013 0.087-0.039 0.116s-0.064 0.044-0.114 0.044-0.088-0.015-0.114-0.044-0.039-0.068-0.039-0.116v-0.47h-0.085z" fill="#fff" fill-rule="nonzero"/>
                        </g>
                        <g transform="matrix(56 0 0 56 1313.5 622.94)">
                            <path d="m0.035-0.62h0.348l-0.368 0.62h0.49v-0.08h-0.348l0.368-0.62h-0.49v0.08z" fill="#fff" fill-rule="nonzero"/>
                        </g>
                        <g transform="matrix(56 0 0 56 1348.5 622.94)">
                            <path d="m0.127-0.34h0.48v-0.08h-0.48v0.08zm0.423-0.36v0.7h0.085v-0.7h-0.085zm-0.47 0v0.7h0.085v-0.7h-0.085z" fill="#fff" fill-rule="nonzero"/>
                        </g>
                        <g transform="matrix(56 0 0 56 1393.1 622.94)">
                            <rect x=".08" y="-.7" width=".085" height=".7" fill="#fff" fill-rule="nonzero"/>
                        </g>
                        <g transform="matrix(56 0 0 56 1432.5 622.94)">
                            <path d="m0.13-0.35c0-0.055 0.012-0.103 0.037-0.144 0.024-0.041 0.056-0.073 0.095-0.096s0.082-0.035 0.128-0.035c0.033 0 0.064 4e-3 0.092 0.013 0.027 9e-3 0.052 0.021 0.075 0.036 0.023 0.016 0.042 0.034 0.058 0.055v-0.112c-0.029-0.026-0.061-0.045-0.096-0.058s-0.078-0.019-0.129-0.019c-0.049 0-0.094 9e-3 -0.136 0.026-0.043 0.018-0.08 0.043-0.112 0.075-0.032 0.033-0.057 0.071-0.075 0.115s-0.027 0.092-0.027 0.144 9e-3 0.1 0.027 0.144 0.043 0.082 0.075 0.114c0.032 0.033 0.069 0.058 0.112 0.075 0.042 0.018 0.087 0.027 0.136 0.027 0.051 0 0.094-6e-3 0.129-0.019s0.067-0.032 0.096-0.058v-0.112c-0.016 0.021-0.035 0.039-0.058 0.054-0.023 0.016-0.048 0.028-0.075 0.037-0.028 9e-3 -0.059 0.013-0.092 0.013-0.046 0-0.089-0.012-0.128-0.035s-0.071-0.056-0.095-0.097c-0.025-0.041-0.037-0.089-0.037-0.143z" fill="#fff" fill-rule="nonzero"/>
                        </g>
                        <g transform="matrix(56 0 0 56 1475.4 622.94)">
                            <path d="m0.127-0.34h0.48v-0.08h-0.48v0.08zm0.423-0.36v0.7h0.085v-0.7h-0.085zm-0.47 0v0.7h0.085v-0.7h-0.085z" fill="#fff" fill-rule="nonzero"/>
                        </g>
                        <g transform="matrix(56 0 0 56 1519.9 622.94)">
                            <path d="m0.147-0.21h0.37l-0.03-0.08h-0.31l-0.03 0.08zm0.183-0.332 0.12 0.282 8e-3 0.02 0.102 0.24h0.095l-0.325-0.735-0.325 0.735h0.095l0.104-0.246 8e-3 -0.018 0.118-0.278z" fill="#fff" fill-rule="nonzero"/>
                        </g>
                        <g transform="matrix(56 0 0 56 1561.3 622.94)">
                            <path d="m0.61-0.7v0.521l-0.53-0.556v0.735h0.085v-0.521l0.53 0.556v-0.735h-0.085z" fill="#fff" fill-rule="nonzero"/>
                        </g>
                    </g>
                    <g transform="matrix(5.2235 0 0 5.2235 -1941.5 -1951.3)">
                        <path d="m480.28 705.18c8.106-10.77 15.32-25.538 15.32-46.614 0-2.233-5.085-3.32-5.166-5.719-0.031-0.936 2.417-1.232 2.94-1.711 1.506-1.376 2.324-1.859 2.812-3.82 0.155-0.62 0.148-1.858 0.148-1.858s-2.661 0.927-3.695 0.941c-2.882 0.038-5.67-2.19-6.434-4.75-1.272-4.259 0.889-13.662 6.359-13.662 5.469 0 7.604 2.951 8.772 10.964 2.261-1.964 5.351-6.893 5.351-13.901 0-2.98-2.518-4.174-3.735-4.174-10.467 0-19.672 8.798-20.654 10.708-1.152 2.242-0.586 4.984-0.586 7.448 0 2.845-2.437 6.375-5.282 6.375-2.483 0-6.431-1.336-6.431-6.014 0-10.916 15.82-30.327 19.533-27.456 1.62 1.253-6.117 10.759-6.057 12.88 2.443-3.118 11.147-13.024 20.901-13.024 3.061 0 11.438 2.046 11.438 10.513 0 11.371-13.408 21.173-13.408 21.173s0.602 5.979 6.489 5.979c2.745 0 6.073 2.219 5.849 7.323-0.15 3.404-3.32 4.281-5.946 3.934-1.707-0.226-4.052-0.79-4.052-0.79 0 18.894-3.568 33.326-8.601 44.247 71.738-8.601 128.63-70.821 128.63-144.6 0-79.521-66.092-145.61-145.61-145.61s-145.61 66.092-145.61 145.61 66.092 145.61 145.61 145.61c0.374 0 0.747-1e-3 1.118-4e-3zm-23.972-112.59c-4.433 4.433 2.758 12.298 2.758 14.141 0 4.564-18.782 13.413-18.782 23.34 0 3.325 1.438 5.011 3.543 7.444 0.946 1.093 2.336 2.285 3.894 2.29 2.567 9e-3 5.497-3.067 7.198-4.128-0.322 4.047-4.223 6.054-6.712 8.724-4.312 4.624-17.547 22.151-17.425 26.991 0.076 2.99 2.132 5.454 4.362 5.454 5.986 0 8.453-5.106 8.869-5.719 2.151-3.16 6.771-6.974 7.23-6.503 0.422 0.431 0.237 1.705 0.267 2.603 0.097 2.931-0.367 6.821 1.724 7.658 1.851 0.741 10.823-0.644 10.823-2.638 0-3.197-2.124-18.041 2.883-35.498 0.293-1.022 0.062-2.234 0.483-3.216 1.155-2.69 4-5.031 3.721-8.264-0.075-0.876-1.094-1.429-1.676-1.997-1.038-1.014-1.921-2.438-3.703-3.159-0.698-0.282-1.533-0.457-2.57-0.457-7.354 0-10.001 3.786-12.495 5.207-0.501 0.285-4.226 4.782-4.226 3.125 0-1.971 5.593-6.132 10.115-10.739 2.507-2.554 5.907-5.695 6.754-5.695 2.833 0 1.625 1.061 5.228 1.061 2.2 0 6.045-2.055 6.045-6.369 0-3.826-3.187-5.808-6.109-7.386-1.245-0.672-3.576-2.251-4.685-3.133-1.85-1.472-6.065-4.587-7.514-3.137zm-4.299 55.952c-1.671 0-5.524 10.752-5.965 12.441 1.453-1.453 3.072-2.109 3.775-3.024 2.388-3.107 2.805-9.417 2.19-9.417zm40.977-16.354c-3.865 0-3.346 5.369-3.346 6.706 0 3.027 2.099 3.873 3.369 3.873 1.659 0 2-0.245 3.151-0.957-0.229-1.517-0.325-2.254-0.7-3.988-0.244-1.128-0.886-5.634-2.474-5.634zm61.279-54.269c0 23.853-19.34 22.973-19.34 38.392 0 6.946 7.115 13.422 14.061 13.422 21.726 0 33.424-26.61 33.424-45.273 0-24.801-28.415-57.658-42.741-57.658-0.589 0-1.388 0.667-1.388 1.255 0 2.215 7.173 6.262 5.607 7.829-1.169 1.168-3.021-0.354-3.968 0.593-3.496 3.496 14.345 15.013 14.345 41.44zm-65.805 17.785c-0.661-0.107-2.137 2.049-3.982 1.807-0.909-0.121-4.587-1.081-5.062 0.028-0.707 1.651 1.237 4.333 2.222 5.383 1.187 1.268 2.339 3.697 4.813 5.154s5.756-0.462 6.624-1.835c1.027-1.623-0.269-4.213-1.501-5.402-0.582-0.563-2.793-1.903-3.131-2.685-0.314-0.726 0.678-2.343 0.017-2.45zm16.165 2.434c-0.625 3.149-8.719 7.018-7.165 8.573 1.067 1.067 9.721-3.241 10.737-3.234 2.182 0.015 4.065 1.638 6.422 0.778 2.464-0.9 4.618-3.901 3.769-6.625-0.302-0.968-1.077-1.415-1.565-2.231-2.697-4.508-8.139-6.718-13.214-7.525-1.388-0.22-5.248-1.036-5.698 1.139-0.267 1.289 2.832 3.769 3.623 4.721 1.05 1.262 1.712 3.557 3.091 4.404zm-102.87-45.481c0-22.286 19.827-19.745 19.827-37.478 0-6.946-7.114-13.423-14.06-13.423-21.726 0-34.911 21.008-34.911 45.273 0 32.84 29.901 57.658 44.228 57.658 0.588 0 1.387-0.666 1.387-1.255 0-2.215-7.173-6.262-5.606-7.828 1.168-1.169 3.021 0.354 3.968-0.593 3.678-3.679-14.833-8.011-14.833-42.354zm62.953-2.286c-3.142 4.851-6.556 5.618-8.849 9.201-2.607 0.068-10.529-0.449-10.851 3.294 22.861 3.393 31.093 17.179 48.257 17.179 3.174 0 9.922-7.106 11.873-9.61 3.565-4.576 7.379-22.885 5.685-24.539-2.603-2.543-19.74 18.895-33.179 18.895-7.457 0-9.925-3.645-16.494-3.663 8.321-6.252 12.766-7.347 21.044-7.347 3.36 0 10.054-2.444 10.054-6.801 0-6.195-8.691-9.139-19.907-9.139-5.721 0-10.922 1.988-15.101 2.171-2.097 0.091-11.686-1.212-14.256-1.181-0.961 0.012-2.701 0.08-2.701 1.183 0 3.726 20.762 9.675 24.425 10.357zm-8.658-30.113c0 2.803 6.951 5.055 6.951 9.955 0 1.591-2.814 2.697-0.987 4.4 1.467 1.366 13.256-4.781 13.256-10.815 0-3.528-13.558-6.328-17.086-6.328-1.321 0-2.134 1.731-2.134 2.788zm1.223-68.556-0.209 0.161c-2.192 1.69-4.35 3.378-4.35 4.856 0 4.758 1.603 5.34 1.603 6.633 0 1.866 1.616 2.912 5.176 2.912 1.826 0 5.557-1.442 6.052-0.794 0.581 0.76-3.504 1.685-6.371 3.284-1.012 0.564-5.444 3.698-5.941 3.201s1.74-2.349 1.74-3.887c0-0.801-0.445-1.311-1.799-1.311-3.467 0-17.247 14.978-17.247 19.901 0 2.502 1.157 4.216 2.849 4.216 10.672 0 17.661-12.518 20.71-12.518-6.031 6.758-12.794 20.919-12.794 28.818 0 3.213 3.746 4.098 6.958 4.098 9.489 0 21.829-9.348 28.821-9.348 2.955 0 22.704 21.858 35.34 21.858 2.323 0 3.018-2.738 3.018-7.925s-4.781-32.109-8.478-32.109c-0.729 0-0.281 1.323-0.452 2.14-0.789-0.503-2.234-4.052-3.112-4.052-1.602 0-0.839 5.267-0.705 7.684 0.208 3.721 0.653 7.309 0.886 10.164 0.187 2.275 0.421 6.018-0.216 6.655s-5.581-2.913-6.663-3.494c-3.478-1.869-8.711-4.781-10.787-8.267-0.888-1.491 0.286-3.629-0.879-4.931-0.96-1.072-2.69-0.854-3.802-1.677-0.942-0.698-1.081-1.67-1.732-2.538-1.357-1.806-2.98-3.101-3.93-5.207-1.131-2.51-3.172-6.381-1.13-8.423 3.696-3.696 2.887-5.951 2.803-7.352-0.055-0.916-0.596-2.468-1.526-2.817-0.958-0.36-2.19 0.287-3.03-0.448-0.574-0.503-3.777-5.266-4.592-7.149-0.543-1.258-1.418-2.244-1.872-1.991-0.187 0.104-0.601-0.758-1.117-1.195-0.801-0.678-1.797-1.166-2.167-1.875-0.328-0.628-0.179-1.312-0.289-1.984-0.127-0.779-0.532-1.502-0.554-2.298-0.021-0.818 0.423-1.509 0.554-2.297 0.197-1.179 0.05-2.483 0.05-3.676 0-2.123 0.589-5.466-2.45-5.505-0.848-0.011-0.991 0.736-2.145 0.736-1.986 0-1.274 0.542-1.892 0.678-0.546 0.12-0.829-0.486-1.411-0.051-0.718 0.537-0.408 6.754 0 8.277 0.414 1.544 1.433 2.07 1.433 3.99 0 1.478-2.159 3.166-4.351 4.857zm8.059 30.208c-1.096-0.089-4.308 6.088-4.936 7.964-0.694 2.069-1.659 4.08-2.425 6.126-0.393 1.05-1.848 4.092-0.817 5.094 0.505 0.49 1.545 0.203 2.052-0.099 4.18-2.484 6.175-2.501 6.175-3.828 0-4.243-1.055-7.374-1.055-9.768 0-2.948 1.36-5.46 1.006-5.489zm9.949 12.082c0.556-0.623 0.359-1.511 1.123-2.003 0.384-0.247 0.76-0.059 1.03-0.537 0.269-0.476-1.243-2.305-1.783-2.227-0.704 0.101-3.571 4.294-3.468 4.99 0.113 0.768 2.767 0.148 3.098-0.223zm-5.048-14.248c-2.798 1.123-2.856 4.926-2.755 7.373 0.028 0.671 0.166 3.28 1.224 2.962 0.721-0.217 1.162-1.153 1.542-1.737 1.123-1.72 2.283-3.72 2.287-5.82 2e-3 -1.31-0.371-3.551-2.298-2.778zm17.46-37.961c-1.351-1.061-1.871-0.084-2.282 1.226-0.547 1.745-0.761 2.696-0.761 4.594 0 1.899 2.044 4.818 4.044 5.73-0.594 0.82-2.13 2.401-2.13 3.75 0 1.648 0.745 1.706 1.328 1.706 4.086 0 6.256-2.489 7.963-3.479 1.146-0.665 16.421-3.081 14.335-9.085-0.314-0.904-1.027-1.462-1.642-2.15-0.569-0.638-0.918-1.414-1.713-1.811-2.16-1.08-5.272-0.555-7.502 0.015-1.317 0.336-2.579 0.895-3.982 0.58-0.957-0.216-1.695-0.952-2.604-1.271-0.599-0.21-1.097-0.29-1.686-0.566-1.317-0.616-2.815-1.12-3.368 0.761z" fill="#fff"/>
                    </g>
                
            
        </g>
    </g>
</svg>
