<?xml version="1.0" encoding="UTF-8"?>
<!DOCTYPE svg  PUBLIC '-//W3C//DTD SVG 1.1//EN'  'http://www.w3.org/Graphics/SVG/1.1/DTD/svg11.dtd'>
<svg clip-rule="evenodd" fill-rule="evenodd" stroke-linejoin="round" stroke-miterlimit="2" version="1.1" viewBox="0 0 1181 322" xml:space="preserve" xmlns="http://www.w3.org/2000/svg">
    <g transform="translate(-333.54 -413.96)">
        <g transform="matrix(.43195 0 0 .43195 1.8109 300.21)">
            <g transform="translate(145.09 122.09)">
                <path d="m960 141.26c-184.1 0-337.1 153.01-337.1 337.1 0 184.1 153.01 337.1 337.1 337.1 184.1 0 337.1-153.01 337.1-337.1 0-184.1-153-337.1-337.1-337.1zm0 24.952c172.28 0 312.15 139.87 312.15 312.15 0 172.28-139.87 312.15-312.15 312.15-172.28 0-312.15-139.87-312.15-312.15 0-172.28 139.87-312.15 312.15-312.15z"/>
            </g>
            <g transform="matrix(2.9501 0 0 2.9501 -331.93 -1100.4)">
                <circle cx="486.93" cy="576.52" r="105.88" fill="#fff"/>
            </g>
            <g transform="matrix(.4432 0 0 .4432 856.27 169.82)">
                <g transform="matrix(3.998,0,0,3.998,-1414.5,-432.18)">
                    <path d="m465.62 210.19-0.273 0.211c-2.864 2.209-5.684 4.414-5.684 6.345 0 6.216 2.095 6.977 2.095 8.666 0 2.438 2.111 3.804 6.762 3.804 2.386 0 7.26-1.883 7.907-1.036 0.759 0.992-4.578 2.201-8.324 4.289-1.322 0.738-7.112 4.832-7.762 4.183-0.649-0.65 2.274-3.069 2.274-5.078 0-1.047-0.582-1.714-2.351-1.714-4.529 0-22.533 19.57-22.533 26.001 0 3.27 1.511 5.509 3.721 5.509 13.944 0 23.076-16.356 27.059-16.356-7.879 8.83-16.716 27.332-16.716 37.653 0 4.197 4.894 5.353 9.092 5.353 12.397 0 28.519-12.214 37.654-12.214 3.861 0 29.663 28.559 46.173 28.559 3.035 0 3.943-3.577 3.943-10.354 0-6.778-6.247-41.952-11.077-41.952-0.953 0-0.367 1.729-0.59 2.797-1.032-0.658-2.92-5.295-4.067-5.295-2.092 0-1.096 6.882-0.92 10.04 0.271 4.861 0.852 9.55 1.158 13.279 0.243 2.972 0.549 7.863-0.283 8.695-0.833 0.832-7.292-3.806-8.705-4.565-4.545-2.441-11.382-6.247-14.094-10.801-1.16-1.948 0.374-4.742-1.148-6.442-1.255-1.401-3.515-1.116-4.967-2.191-1.232-0.913-1.413-2.183-2.264-3.316-1.773-2.359-3.893-4.052-5.134-6.803-1.478-3.28-4.144-8.337-1.477-11.005 4.829-4.829 3.773-7.775 3.663-9.605-0.072-1.197-0.779-3.226-1.993-3.682-1.253-0.469-2.863 0.376-3.959-0.584-0.751-0.657-4.935-6.88-6-9.341-0.71-1.644-1.854-2.932-2.447-2.601-0.244 0.136-0.784-0.99-1.459-1.561-1.046-0.886-2.348-1.523-2.831-2.449-0.429-0.822-0.233-1.714-0.377-2.594-0.166-1.016-0.696-1.962-0.724-3.001-0.028-1.069 0.552-1.971 0.724-3.002 0.257-1.539 0.065-3.243 0.065-4.802 0-2.774 0.769-7.142-3.202-7.193-1.106-0.014-1.294 0.961-2.801 0.961-2.595 0-1.665 0.71-2.473 0.887-0.713 0.157-1.083-0.635-1.842-0.067-0.939 0.702-0.534 8.825-1e-3 10.815 0.541 2.016 1.872 2.704 1.872 5.212 0 1.932-2.82 4.136-5.684 6.345zm10.529 39.468c-1.432-0.116-5.628 7.955-6.449 10.405-0.907 2.703-2.167 5.33-3.169 8.004-0.513 1.372-2.414 5.346-1.067 6.655 0.66 0.64 2.019 0.266 2.681-0.128 5.461-3.246 8.068-3.268 8.068-5.003 0-5.543-1.379-9.634-1.379-12.761 0-3.852 1.777-7.134 1.315-7.172zm12.999 15.786c0.725-0.814 0.469-1.975 1.466-2.617 0.502-0.323 0.993-0.078 1.346-0.702 0.351-0.622-1.623-3.011-2.329-2.91-0.92 0.133-4.666 5.611-4.532 6.52 0.148 1.004 3.616 0.194 4.049-0.291zm-6.596-18.616c-3.656 1.468-3.731 6.436-3.599 9.634 0.036 0.876 0.216 4.285 1.599 3.869 0.942-0.283 1.518-1.507 2.015-2.269 1.467-2.248 2.982-4.86 2.987-7.603 3e-3 -1.713-0.485-4.641-3.002-3.631zm22.812-49.596c-1.765-1.387-2.445-0.11-2.981 1.601-0.715 2.281-0.995 3.522-0.995 6.003 0 2.48 2.671 6.294 5.284 7.486-0.776 1.071-2.782 3.136-2.782 4.899 0 2.153 0.973 2.229 1.734 2.229 5.339 0 8.174-3.251 10.403-4.545 1.498-0.869 21.455-4.026 18.73-11.87-0.41-1.181-1.342-1.91-2.146-2.809-0.743-0.833-1.199-1.847-2.238-2.366-2.822-1.41-6.888-0.726-9.802 0.019-1.72 0.44-3.369 1.17-5.202 0.758-1.25-0.281-2.215-1.243-3.402-1.66-0.783-0.275-1.433-0.379-2.202-0.739-1.722-0.805-3.679-1.464-4.401 0.994z" fill="#010101"/>
                </g>
                <g transform="matrix(2.7363 0 0 2.7363 -2081.2 -153.12)">
                    <path d="m985.57 511.01c-7.087-5.482-37.287 31.573-37.287 52.411 0 8.931 7.536 11.481 12.276 11.481 5.431 0 10.084-6.739 10.084-12.17 0-4.703-1.08-9.938 1.119-14.217 1.873-3.647 19.446-20.442 39.431-20.442 2.32 0 7.13 2.279 7.13 7.968 0 13.378-5.9 22.788-10.22 26.536-2.23-15.297-6.3-20.93-16.745-20.93-10.441 0-14.566 17.95-12.139 26.082 1.458 4.886 6.781 9.139 12.282 9.066 1.974-0.025 7.054-1.795 7.054-1.795s0.013 2.362-0.282 3.546c-0.933 3.743-2.494 4.665-5.369 7.293-0.997 0.913-5.671 1.479-5.611 3.266 0.154 4.58 9.861 6.654 9.861 10.917 0 92.47-72.749 121.33-71.765 140.2 0.225 4.327 4.556 6.728 11.11 6.728s78.114-27.418 78.114-144.33c0 0 4.48 1.077 7.74 1.508 5.01 0.664 11.06-1.011 11.34-7.508 0.43-9.745-5.92-13.98-11.16-13.98-11.24 0-12.39-11.413-12.39-11.413s25.6-18.711 25.6-40.419c0-16.162-15.99-20.068-21.84-20.068-18.615 0-35.232 18.91-39.895 24.861-0.114-4.049 14.654-22.195 11.562-24.586zm-63.423-36.936c-8.463 8.463 5.266 23.478 5.266 26.995 0 8.713-35.854 25.605-35.854 44.555 0 6.347 2.744 9.566 6.762 14.211 1.806 2.087 4.459 4.361 7.433 4.371 4.902 0.016 10.495-5.855 13.741-7.879-0.614 7.725-8.061 11.555-12.813 16.653-8.231 8.826-33.496 42.285-33.262 51.524 0.144 5.709 4.07 10.412 8.325 10.412 11.427 0 16.137-9.748 16.932-10.917 4.105-6.033 12.924-13.313 13.802-12.415 0.804 0.824 0.452 3.256 0.509 4.97 0.186 5.595-0.701 13.021 3.291 14.618 3.534 1.414 20.661-1.229 20.661-5.036 0-6.103-4.055-34.438 5.503-67.763 0.56-1.951 0.119-4.265 0.923-6.14 2.204-5.134 7.634-9.604 7.103-15.776-0.144-1.672-2.089-2.727-3.199-3.812-1.982-1.935-3.669-4.653-7.07-6.03-1.332-0.539-2.927-0.873-4.906-0.873-14.038 0-19.091 7.228-23.853 9.94-0.955 0.545-8.067 9.13-8.067 5.965 0-3.761 10.677-11.704 19.31-20.5 4.785-4.875 11.277-10.87 12.892-10.87 5.408 0 3.103 2.024 9.98 2.024 4.2 0 11.54-3.923 11.54-12.157 0-7.305-6.083-11.088-11.662-14.099-2.377-1.284-6.826-4.298-8.943-5.982-3.531-2.81-11.577-8.756-14.344-5.989zm-8.207 106.81c-3.19 0-10.545 20.525-11.387 23.748 2.774-2.773 5.865-4.026 7.207-5.772 4.558-5.93 5.354-17.976 4.18-17.976zm78.224-31.219c-7.377 0-6.388 10.248-6.388 12.8 0 5.78 4.007 7.394 6.432 7.394 3.167 0 3.818-0.467 6.015-1.827-0.437-2.896-0.62-4.302-1.337-7.613-0.465-2.153-1.691-10.754-4.722-10.754zm-8.641-69.647c-1.261-0.205-4.079 3.912-7.601 3.45-1.734-0.231-8.756-2.064-9.662 0.053-1.35 3.151 2.36 8.271 4.241 10.277 2.267 2.42 4.465 7.056 9.188 9.838 4.722 2.782 10.988-0.883 12.644-3.503 1.962-3.099-0.512-8.043-2.864-10.312-1.112-1.075-5.332-3.634-5.978-5.125-0.599-1.386 1.294-4.473 0.032-4.678zm30.86 4.646c-1.19 6.012-16.645 13.398-13.68 16.365 2.04 2.037 18.56-6.185 20.5-6.172 4.16 0.029 7.76 3.127 12.26 1.484 4.7-1.717 8.81-7.447 7.19-12.647-0.57-1.846-2.05-2.7-2.99-4.258-5.14-8.605-15.53-12.824-25.22-14.364-2.65-0.421-10.02-1.978-10.88 2.173-0.51 2.461 5.41 7.195 6.92 9.012 2 2.409 3.27 6.791 5.9 8.407z" fill="#ff7f32"/>
                </g>
                <g transform="matrix(10.717 0 0 10.717 -11182 -5447.1)">
                    <g transform="matrix(56 0 0 56 1192.8 622.94)">
                        <path d="m0.703-0.185-0.208-0.55-0.204 0.55-0.186-0.515h-0.095l0.275 0.735 0.21-0.544 0.21 0.544 0.275-0.735h-0.095l-0.182 0.515z" fill-rule="nonzero"/>
                    </g>
                    <g transform="matrix(56 0 0 56 1252.7 622.94)">
                        <path d="m0.075-0.7v0.47c0 0.035 6e-3 0.067 0.017 0.096 0.01 0.029 0.026 0.055 0.048 0.076 0.021 0.021 0.046 0.038 0.075 0.05s0.062 0.018 0.098 0.018 0.069-6e-3 0.098-0.018 0.055-0.029 0.076-0.05c0.02-0.021 0.037-0.047 0.048-0.076s0.016-0.061 0.016-0.096v-0.47h-0.085v0.47c0 0.048-0.013 0.087-0.039 0.116s-0.064 0.044-0.114 0.044-0.088-0.015-0.114-0.044-0.039-0.068-0.039-0.116v-0.47h-0.085z" fill-rule="nonzero"/>
                    </g>
                    <g transform="matrix(56 0 0 56 1313.5 622.94)">
                        <path d="m0.035-0.62h0.348l-0.368 0.62h0.49v-0.08h-0.348l0.368-0.62h-0.49v0.08z" fill-rule="nonzero"/>
                    </g>
                    <g transform="matrix(56 0 0 56 1348.5 622.94)">
                        <path d="m0.127-0.34h0.48v-0.08h-0.48v0.08zm0.423-0.36v0.7h0.085v-0.7h-0.085zm-0.47 0v0.7h0.085v-0.7h-0.085z" fill-rule="nonzero"/>
                    </g>
                    <g transform="matrix(56 0 0 56 1393.1 622.94)">
                        <rect x=".08" y="-.7" width=".085" height=".7" fill-rule="nonzero"/>
                    </g>
                    <g transform="matrix(56 0 0 56 1432.5 622.94)">
                        <path d="m0.13-0.35c0-0.055 0.012-0.103 0.037-0.144 0.024-0.041 0.056-0.073 0.095-0.096s0.082-0.035 0.128-0.035c0.033 0 0.064 4e-3 0.092 0.013 0.027 9e-3 0.052 0.021 0.075 0.036 0.023 0.016 0.042 0.034 0.058 0.055v-0.112c-0.029-0.026-0.061-0.045-0.096-0.058s-0.078-0.019-0.129-0.019c-0.049 0-0.094 9e-3 -0.136 0.026-0.043 0.018-0.08 0.043-0.112 0.075-0.032 0.033-0.057 0.071-0.075 0.115s-0.027 0.092-0.027 0.144 9e-3 0.1 0.027 0.144 0.043 0.082 0.075 0.114c0.032 0.033 0.069 0.058 0.112 0.075 0.042 0.018 0.087 0.027 0.136 0.027 0.051 0 0.094-6e-3 0.129-0.019s0.067-0.032 0.096-0.058v-0.112c-0.016 0.021-0.035 0.039-0.058 0.054-0.023 0.016-0.048 0.028-0.075 0.037-0.028 9e-3 -0.059 0.013-0.092 0.013-0.046 0-0.089-0.012-0.128-0.035s-0.071-0.056-0.095-0.097c-0.025-0.041-0.037-0.089-0.037-0.143z" fill-rule="nonzero"/>
                    </g>
                    <g transform="matrix(56 0 0 56 1475.4 622.94)">
                        <path d="m0.127-0.34h0.48v-0.08h-0.48v0.08zm0.423-0.36v0.7h0.085v-0.7h-0.085zm-0.47 0v0.7h0.085v-0.7h-0.085z" fill-rule="nonzero"/>
                    </g>
                    <g transform="matrix(56 0 0 56 1519.9 622.94)">
                        <path d="m0.147-0.21h0.37l-0.03-0.08h-0.31l-0.03 0.08zm0.183-0.332 0.12 0.282 8e-3 0.02 0.102 0.24h0.095l-0.325-0.735-0.325 0.735h0.095l0.104-0.246 8e-3 -0.018 0.118-0.278z" fill-rule="nonzero"/>
                    </g>
                    <g transform="matrix(56 0 0 56 1561.3 622.94)">
                        <path d="m0.61-0.7v0.521l-0.53-0.556v0.735h0.085v-0.521l0.53 0.556v-0.735h-0.085z" fill-rule="nonzero"/>
                    </g>
                </g>
                <g transform="translate(311.57 311.57)">
                    <path d="m174.34 612c-16.409 25.337-34.243 29.343-46.219 48.062-13.617 0.355-55.001-2.346-56.68 17.203 119.41 17.725 162.41 89.737 252.07 89.737 16.58 0 51.825-37.121 62.016-50.199 18.625-23.901 38.546-119.54 29.698-128.18-13.599-13.28-103.11 98.698-173.31 98.698-38.95 0-51.843-19.04-86.158-19.134 43.465-32.655 66.686-38.375 109.92-38.375 17.553 0 52.52-12.766 52.52-35.525 0-32.36-45.399-47.735-103.99-47.735-29.885 0-57.051 10.382-78.879 11.337-10.956 0.478-61.043-6.329-74.466-6.168-5.019 0.061-14.107 0.418-14.107 6.18 0 19.463 108.44 50.534 127.58 54.099zm-45.223-157.3c0 14.641 36.306 26.406 36.306 52.001 0 8.312-14.698 14.085-5.153 22.981 7.662 7.14 69.24-24.973 69.24-56.488 0-18.43-70.817-33.057-89.247-33.057-6.897 0-11.146 9.045-11.146 14.563z" fill="#010101"/>
                </g>
                <g transform="matrix(-1.1884 -1.4553e-16 1.4553e-16 -1.1884 1393.9 1893.6)">
                    <path d="m370.4 695.15c0-104.85 85.008-100.98 85.008-168.75 0-30.532-31.27-59-61.802-59-95.499 0-146.92 116.97-146.92 199 0 109.02 124.9 253.44 187.87 253.44 2.586 0 6.098-2.931 6.098-5.516 0-9.738-31.529-27.526-24.644-34.411 5.138-5.138 13.279 1.557 17.442-2.606 15.367-15.367-63.055-65.992-63.055-182.15z" fill="#8f8f8f"/>
                </g>
                <g transform="matrix(1.1884 2.9106e-16 -2.9106e-16 1.1884 -280.55 114.2)">
                    <path d="m368.26 691.14c0-97.959 87.15-86.791 87.15-164.74 0-30.532-31.27-59-61.802-59-95.499 0-153.45 92.341-153.45 199 0 144.35 131.43 253.44 194.41 253.44 2.586 0 6.098-2.931 6.098-5.516 0-9.738-31.529-27.526-24.644-34.411 5.138-5.138 13.279 1.557 17.442-2.606 16.17-16.17-65.197-35.211-65.197-186.17z" fill="#8f8f8f"/>
                </g>
            </g>
        </g>
    </g>
</svg>
