<?xml version="1.0" encoding="UTF-8" standalone="no"?>
<!DOCTYPE svg PUBLIC "-//W3C//DTD SVG 1.1//EN" "http://www.w3.org/Graphics/SVG/1.1/DTD/svg11.dtd">
<svg clip-rule="evenodd" fill-rule="evenodd" stroke-linejoin="round" stroke-miterlimit="2" version="1.1" viewBox="0 0 1300 292" xml:space="preserve" xmlns="http://www.w3.org/2000/svg">
    <g transform="matrix(1,0,0,1,-333.544,-413.962)">
        <g id="color" transform="matrix(0.431954,0,0,0.431954,1.81087,300.209)">
            <g transform="matrix(0.953513,0,0,0.953513,189.715,144.325)">
                <path d="M960,141.259C775.903,141.259 622.897,294.266 622.897,478.362C622.897,662.459 775.903,815.466 960,815.466C1144.1,815.466 1297.1,662.459 1297.1,478.362C1297.1,294.266 1144.1,141.259 960,141.259Z" style="fill:white;"/>
            </g>
            <g transform="matrix(1,0,0,1,145.087,122.087)">
                <path d="M960,141.259C775.903,141.259 622.897,294.266 622.897,478.362C622.897,662.459 775.903,815.466 960,815.466C1144.1,815.466 1297.1,662.459 1297.1,478.362C1297.1,294.266 1144.1,141.259 960,141.259ZM960,166.211C1132.28,166.211 1272.15,306.081 1272.15,478.362C1272.15,650.644 1132.28,790.514 960,790.514C787.719,790.514 647.848,650.644 647.848,478.362C647.848,306.081 787.719,166.211 960,166.211Z"/>
            </g>
            <g id="ESCRITO" transform="matrix(0.443204,0,0,0.443204,856.272,169.818)">
                <g id="wu" transform="matrix(3.998,0,0,3.998,-1414.5,-432.18)">
                    <path d="M465.624,210.193L465.351,210.404C462.487,212.613 459.667,214.818 459.667,216.749C459.667,222.965 461.762,223.726 461.762,225.415C461.762,227.853 463.873,229.219 468.524,229.219C470.91,229.219 475.784,227.336 476.431,228.183C477.19,229.175 471.853,230.384 468.107,232.472C466.785,233.21 460.995,237.304 460.345,236.655C459.696,236.005 462.619,233.586 462.619,231.577C462.619,230.53 462.037,229.863 460.268,229.863C455.739,229.863 437.735,249.433 437.735,255.864C437.735,259.134 439.246,261.373 441.456,261.373C455.4,261.373 464.532,245.017 468.515,245.017C460.636,253.847 451.799,272.349 451.799,282.67C451.799,286.867 456.693,288.023 460.891,288.023C473.288,288.023 489.41,275.809 498.545,275.809C502.406,275.809 528.208,304.368 544.718,304.368C547.753,304.368 548.661,300.791 548.661,294.014C548.661,287.236 542.414,252.062 537.584,252.062C536.631,252.062 537.217,253.791 536.994,254.859C535.962,254.201 534.074,249.564 532.927,249.564C530.835,249.564 531.831,256.446 532.007,259.604C532.278,264.465 532.859,269.154 533.165,272.883C533.408,275.855 533.714,280.746 532.882,281.578C532.049,282.41 525.59,277.772 524.177,277.013C519.632,274.572 512.795,270.766 510.083,266.212C508.923,264.264 510.457,261.47 508.935,259.77C507.68,258.369 505.42,258.654 503.968,257.579C502.736,256.666 502.555,255.396 501.704,254.263C499.931,251.904 497.811,250.211 496.57,247.46C495.092,244.18 492.426,239.123 495.093,236.455C499.922,231.626 498.866,228.68 498.756,226.85C498.684,225.653 497.977,223.624 496.763,223.168C495.51,222.699 493.9,223.544 492.804,222.584C492.053,221.927 487.869,215.704 486.804,213.243C486.094,211.599 484.95,210.311 484.357,210.642C484.113,210.778 483.573,209.652 482.898,209.081C481.852,208.195 480.55,207.558 480.067,206.632C479.638,205.81 479.834,204.918 479.69,204.038C479.524,203.022 478.994,202.076 478.966,201.037C478.938,199.968 479.518,199.066 479.69,198.035C479.947,196.496 479.755,194.792 479.755,193.233C479.755,190.459 480.524,186.091 476.553,186.04C475.447,186.026 475.259,187.001 473.752,187.001C471.157,187.001 472.087,187.711 471.279,187.888C470.566,188.045 470.196,187.253 469.437,187.821C468.498,188.523 468.903,196.646 469.436,198.636C469.977,200.652 471.308,201.34 471.308,203.848C471.308,205.78 468.488,207.984 465.624,210.193ZM476.153,249.661C474.721,249.545 470.525,257.616 469.704,260.066C468.797,262.769 467.537,265.396 466.535,268.07C466.022,269.442 464.121,273.416 465.468,274.725C466.128,275.365 467.487,274.991 468.149,274.597C473.61,271.351 476.217,271.329 476.217,269.594C476.217,264.051 474.838,259.96 474.838,256.833C474.838,252.981 476.615,249.699 476.153,249.661ZM489.152,265.447C489.877,264.633 489.621,263.472 490.618,262.83C491.12,262.507 491.611,262.752 491.964,262.128C492.315,261.506 490.341,259.117 489.635,259.218C488.715,259.351 484.969,264.829 485.103,265.738C485.251,266.742 488.719,265.932 489.152,265.447ZM482.556,246.831C478.9,248.299 478.825,253.267 478.957,256.465C478.993,257.341 479.173,260.75 480.556,260.334C481.498,260.051 482.074,258.827 482.571,258.065C484.038,255.817 485.553,253.205 485.558,250.462C485.561,248.749 485.073,245.821 482.556,246.831ZM505.368,197.235C503.603,195.848 502.923,197.125 502.387,198.836C501.672,201.117 501.392,202.358 501.392,204.839C501.392,207.319 504.063,211.133 506.676,212.325C505.9,213.396 503.894,215.461 503.894,217.224C503.894,219.377 504.867,219.453 505.628,219.453C510.967,219.453 513.802,216.202 516.031,214.908C517.529,214.039 537.486,210.882 534.761,203.038C534.351,201.857 533.419,201.128 532.615,200.229C531.872,199.396 531.416,198.382 530.377,197.863C527.555,196.453 523.489,197.137 520.575,197.882C518.855,198.322 517.206,199.052 515.373,198.64C514.123,198.359 513.158,197.397 511.971,196.98C511.188,196.705 510.538,196.601 509.769,196.241C508.047,195.436 506.09,194.777 505.368,197.235Z" style="fill:rgb(1,1,1);"/>
                </g>
                <g id="chan" transform="matrix(2.7363,0,0,2.7363,-2081.24,-153.115)">
                    <path d="M985.567,511.012C978.48,505.53 948.28,542.585 948.28,563.423C948.28,572.354 955.816,574.904 960.556,574.904C965.987,574.904 970.64,568.165 970.64,562.734C970.64,558.031 969.56,552.796 971.759,548.517C973.632,544.87 991.205,528.075 1011.19,528.075C1013.51,528.075 1018.32,530.354 1018.32,536.043C1018.32,549.421 1012.42,558.831 1008.1,562.579C1005.87,547.282 1001.8,541.649 991.355,541.649C980.914,541.649 976.789,559.599 979.216,567.731C980.674,572.617 985.997,576.87 991.498,576.797C993.472,576.772 998.552,575.002 998.552,575.002C998.552,575.002 998.565,577.364 998.27,578.548C997.337,582.291 995.776,583.213 992.901,585.841C991.904,586.754 987.23,587.32 987.29,589.107C987.444,593.687 997.151,595.761 997.151,600.024C997.151,692.494 924.402,721.352 925.386,740.223C925.611,744.55 929.942,746.951 936.496,746.951C943.05,746.951 1014.61,719.533 1014.61,602.617C1014.61,602.617 1019.09,603.694 1022.35,604.125C1027.36,604.789 1033.41,603.114 1033.69,596.617C1034.12,586.872 1027.77,582.637 1022.53,582.637C1011.29,582.637 1010.14,571.224 1010.14,571.224C1010.14,571.224 1035.74,552.513 1035.74,530.805C1035.74,514.643 1019.75,510.737 1013.9,510.737C995.285,510.737 978.668,529.647 974.005,535.598C973.891,531.549 988.659,513.403 985.567,511.012ZM922.144,474.076C913.681,482.539 927.41,497.554 927.41,501.071C927.41,509.784 891.556,526.676 891.556,545.626C891.556,551.973 894.3,555.192 898.318,559.837C900.124,561.924 902.777,564.198 905.751,564.208C910.653,564.224 916.246,558.353 919.492,556.329C918.878,564.054 911.431,567.884 906.679,572.982C898.448,581.808 873.183,615.267 873.417,624.506C873.561,630.215 877.487,634.918 881.742,634.918C893.169,634.918 897.879,625.17 898.674,624.001C902.779,617.968 911.598,610.688 912.476,611.586C913.28,612.41 912.928,614.842 912.985,616.556C913.171,622.151 912.284,629.577 916.276,631.174C919.81,632.588 936.937,629.945 936.937,626.138C936.937,620.035 932.882,591.7 942.44,558.375C943,556.424 942.559,554.11 943.363,552.235C945.567,547.101 950.997,542.631 950.466,536.459C950.322,534.787 948.377,533.732 947.267,532.647C945.285,530.712 943.598,527.994 940.197,526.617C938.865,526.078 937.27,525.744 935.291,525.744C921.253,525.744 916.2,532.972 911.438,535.684C910.483,536.229 903.371,544.814 903.371,541.649C903.371,537.888 914.048,529.945 922.681,521.149C927.466,516.274 933.958,510.279 935.573,510.279C940.981,510.279 938.676,512.303 945.553,512.303C949.753,512.303 957.093,508.38 957.093,500.146C957.093,492.841 951.01,489.058 945.431,486.047C943.054,484.763 938.605,481.749 936.488,480.065C932.957,477.255 924.911,471.309 922.144,474.076ZM913.937,580.887C910.747,580.887 903.392,601.412 902.55,604.635C905.324,601.862 908.415,600.609 909.757,598.863C914.315,592.933 915.111,580.887 913.937,580.887ZM992.161,549.668C984.784,549.668 985.773,559.916 985.773,562.468C985.773,568.248 989.78,569.862 992.205,569.862C995.372,569.862 996.023,569.395 998.22,568.035C997.783,565.139 997.6,563.733 996.883,560.422C996.418,558.269 995.192,549.668 992.161,549.668ZM983.52,480.021C982.259,479.816 979.441,483.933 975.919,483.471C974.185,483.24 967.163,481.407 966.257,483.524C964.907,486.675 968.617,491.795 970.498,493.801C972.765,496.221 974.963,500.857 979.686,503.639C984.408,506.421 990.674,502.756 992.33,500.136C994.292,497.037 991.818,492.093 989.466,489.824C988.354,488.749 984.134,486.19 983.488,484.699C982.889,483.313 984.782,480.226 983.52,480.021ZM1014.38,484.667C1013.19,490.679 997.735,498.065 1000.7,501.032C1002.74,503.069 1019.26,494.847 1021.2,494.86C1025.36,494.889 1028.96,497.987 1033.46,496.344C1038.16,494.627 1042.27,488.897 1040.65,483.697C1040.08,481.851 1038.6,480.997 1037.66,479.439C1032.52,470.834 1022.13,466.615 1012.44,465.075C1009.79,464.654 1002.42,463.097 1001.56,467.248C1001.05,469.709 1006.97,474.443 1008.48,476.26C1010.48,478.669 1011.75,483.051 1014.38,484.667Z" style="fill:rgb(255,127,50);"/>
                </g>
                <g transform="matrix(1,0,0,1,311.566,311.566)">
                    <path d="M174.337,612.005C157.928,637.342 140.094,641.348 128.118,660.067C114.501,660.422 73.117,657.721 71.438,677.27C190.849,694.995 233.851,767.007 323.506,767.007C340.086,767.007 375.331,729.886 385.522,716.808C404.147,692.907 424.068,597.269 415.22,588.628C401.621,575.348 312.108,687.326 241.91,687.326C202.96,687.326 190.067,668.286 155.752,668.192C199.217,635.537 222.438,629.817 265.676,629.817C283.229,629.817 318.196,617.051 318.196,594.292C318.196,561.932 272.797,546.557 214.21,546.557C184.325,546.557 157.159,556.939 135.331,557.894C124.375,558.372 74.288,551.565 60.865,551.726C55.846,551.787 46.758,552.144 46.758,557.906C46.758,577.369 155.203,608.44 174.337,612.005ZM129.114,454.709C129.114,469.35 165.42,481.115 165.42,506.71C165.42,515.022 150.722,520.795 160.267,529.691C167.929,536.831 229.507,504.718 229.507,473.203C229.507,454.773 158.69,440.146 140.26,440.146C133.363,440.146 129.114,449.191 129.114,454.709Z" style="fill:rgb(1,1,1);"/>
                </g>
                <g transform="matrix(-1.18835,-1.45531e-16,1.45531e-16,-1.18835,1393.86,1893.55)">
                    <path d="M370.399,695.153C370.399,590.307 455.407,594.174 455.407,526.4C455.407,495.868 424.137,467.4 393.605,467.4C298.106,467.4 246.687,584.368 246.687,666.4C246.687,775.415 371.584,919.84 434.558,919.84C437.144,919.84 440.656,916.909 440.656,914.324C440.656,904.586 409.127,886.798 416.012,879.913C421.15,874.775 429.291,881.47 433.454,877.307C448.821,861.94 370.399,811.315 370.399,695.153Z" style="fill:rgb(143,143,143);"/>
                </g>
                <g transform="matrix(1.18835,2.91063e-16,-2.91063e-16,1.18835,-280.547,114.196)">
                    <path d="M368.257,691.137C368.257,593.178 455.407,604.346 455.407,526.4C455.407,495.868 424.137,467.4 393.605,467.4C298.106,467.4 240.152,559.741 240.152,666.4C240.152,810.749 371.584,919.84 434.558,919.84C437.144,919.84 440.656,916.909 440.656,914.324C440.656,904.586 409.127,886.798 416.012,879.913C421.15,874.775 429.291,881.47 433.454,877.307C449.624,861.137 368.257,842.096 368.257,691.137Z" style="fill:rgb(143,143,143);"/>
                </g>
                <g transform="matrix(7.74167,0,0,7.74167,-4006.82,-2830.2)">
                    <g transform="matrix(82.4547,0,0,82.4547,728.577,488.233)">
                        <path d="M0.7,-0.121L0.487,-0.727L0.277,-0.121L0.075,-0.7L0.014,-0.7L0.273,0.027L0.487,-0.576L0.701,0.027L0.96,-0.7L0.899,-0.7L0.7,-0.121Z" style="fill-rule:nonzero;"/>
                    </g>
                    <g transform="matrix(82.4547,0,0,82.4547,815.485,488.233)">
                        <path d="M0.079,-0.7L0.079,-0.226C0.079,-0.191 0.084,-0.16 0.094,-0.131C0.104,-0.102 0.119,-0.077 0.138,-0.056C0.157,-0.035 0.181,-0.019 0.209,-0.008C0.236,0.004 0.268,0.01 0.303,0.01C0.338,0.01 0.37,0.004 0.398,-0.008C0.425,-0.019 0.449,-0.035 0.468,-0.056C0.487,-0.077 0.502,-0.102 0.512,-0.131C0.522,-0.16 0.527,-0.191 0.527,-0.226L0.527,-0.7L0.472,-0.7L0.472,-0.226C0.472,-0.17 0.457,-0.125 0.428,-0.092C0.399,-0.059 0.357,-0.042 0.303,-0.042C0.249,-0.042 0.207,-0.059 0.178,-0.092C0.149,-0.125 0.134,-0.17 0.134,-0.226L0.134,-0.7L0.079,-0.7Z" style="fill-rule:nonzero;"/>
                    </g>
                    <g transform="matrix(82.4547,0,0,82.4547,903.381,488.233)">
                        <path d="M0.037,-0.648L0.429,-0.648L0.017,-0L0.507,-0L0.507,-0.052L0.111,-0.052L0.523,-0.7L0.037,-0.7L0.037,-0.648Z" style="fill-rule:nonzero;"/>
                    </g>
                    <g transform="matrix(82.4547,0,0,82.4547,954.586,488.233)">
                        <path d="M0.113,-0.355L0.585,-0.355L0.585,-0.407L0.113,-0.407L0.113,-0.355ZM0.548,-0.7L0.548,-0L0.604,-0L0.604,-0.7L0.548,-0.7ZM0.084,-0.7L0.084,-0L0.139,-0L0.139,-0.7L0.084,-0.7Z" style="fill-rule:nonzero;"/>
                    </g>
                    <g transform="matrix(82.4547,0,0,82.4547,1017.91,488.233)">
                        <rect x="0.082" y="-0.7" width="0.055" height="0.7" style="fill-rule:nonzero;"/>
                    </g>
                    <g transform="matrix(82.4547,0,0,82.4547,1073.9,488.233)">
                        <path d="M0.103,-0.35C0.103,-0.41 0.116,-0.463 0.141,-0.508C0.166,-0.553 0.2,-0.589 0.243,-0.615C0.286,-0.64 0.333,-0.653 0.386,-0.653C0.419,-0.653 0.449,-0.649 0.476,-0.642C0.503,-0.635 0.528,-0.624 0.551,-0.61C0.574,-0.595 0.594,-0.578 0.611,-0.558L0.611,-0.631C0.582,-0.657 0.55,-0.677 0.515,-0.69C0.48,-0.703 0.437,-0.709 0.386,-0.709C0.337,-0.709 0.292,-0.7 0.251,-0.683C0.209,-0.665 0.173,-0.64 0.142,-0.608C0.111,-0.576 0.087,-0.538 0.07,-0.494C0.053,-0.45 0.044,-0.402 0.044,-0.35C0.044,-0.298 0.053,-0.25 0.07,-0.206C0.087,-0.162 0.111,-0.124 0.142,-0.092C0.173,-0.06 0.209,-0.035 0.251,-0.018C0.292,0 0.337,0.009 0.386,0.009C0.437,0.009 0.48,0.002 0.515,-0.011C0.55,-0.024 0.582,-0.043 0.611,-0.069L0.611,-0.143C0.594,-0.123 0.574,-0.106 0.552,-0.091C0.529,-0.076 0.504,-0.065 0.477,-0.058C0.45,-0.051 0.419,-0.047 0.386,-0.047C0.333,-0.047 0.286,-0.06 0.243,-0.086C0.2,-0.112 0.166,-0.148 0.141,-0.193C0.116,-0.238 0.103,-0.291 0.103,-0.35Z" style="fill-rule:nonzero;"/>
                    </g>
                    <g transform="matrix(82.4547,0,0,82.4547,1136.98,488.233)">
                        <path d="M0.113,-0.355L0.585,-0.355L0.585,-0.407L0.113,-0.407L0.113,-0.355ZM0.548,-0.7L0.548,-0L0.604,-0L0.604,-0.7L0.548,-0.7ZM0.084,-0.7L0.084,-0L0.139,-0L0.139,-0.7L0.084,-0.7Z" style="fill-rule:nonzero;"/>
                    </g>
                    <g transform="matrix(82.4547,0,0,82.4547,1200.3,488.233)">
                        <path d="M0.14,-0.235L0.499,-0.235L0.481,-0.287L0.158,-0.287L0.14,-0.235ZM0.318,-0.6L0.456,-0.266L0.461,-0.253L0.565,-0L0.627,-0L0.318,-0.727L0.009,-0L0.071,-0L0.176,-0.257L0.182,-0.269L0.318,-0.6Z" style="fill-rule:nonzero;"/>
                    </g>
                    <g transform="matrix(82.4547,0,0,82.4547,1259.34,488.233)">
                        <path d="M0.616,-0.7L0.616,-0.114L0.084,-0.727L0.084,-0L0.139,-0L0.139,-0.584L0.671,0.027L0.671,-0.7L0.616,-0.7Z" style="fill-rule:nonzero;"/>
                    </g>
                </g>
                <g transform="matrix(7.69107,0,0,7.69107,-7524.5,-3242.79)">
                    <g transform="matrix(56,0,0,56,1192.8,622.935)">
                        <path d="M0.124,-0.226L0.036,-0.164C0.051,-0.132 0.072,-0.102 0.099,-0.075C0.125,-0.048 0.156,-0.026 0.191,-0.01C0.226,0.007 0.263,0.015 0.304,0.015C0.334,0.015 0.363,0.01 0.391,0C0.418,-0.009 0.443,-0.023 0.465,-0.041C0.487,-0.058 0.504,-0.08 0.518,-0.106C0.531,-0.132 0.537,-0.161 0.537,-0.194C0.537,-0.225 0.532,-0.252 0.521,-0.275C0.51,-0.298 0.497,-0.317 0.48,-0.334C0.463,-0.351 0.444,-0.365 0.423,-0.376C0.402,-0.387 0.38,-0.397 0.359,-0.404C0.322,-0.417 0.291,-0.43 0.268,-0.443C0.245,-0.456 0.228,-0.469 0.217,-0.484C0.205,-0.498 0.2,-0.514 0.2,-0.532C0.2,-0.552 0.208,-0.57 0.223,-0.585C0.238,-0.6 0.262,-0.607 0.295,-0.607C0.318,-0.607 0.339,-0.603 0.357,-0.594C0.374,-0.585 0.39,-0.573 0.403,-0.558C0.416,-0.543 0.428,-0.526 0.437,-0.509L0.532,-0.563C0.521,-0.588 0.504,-0.611 0.483,-0.634C0.462,-0.657 0.436,-0.676 0.405,-0.691C0.374,-0.706 0.338,-0.713 0.297,-0.713C0.255,-0.713 0.218,-0.705 0.185,-0.689C0.152,-0.673 0.125,-0.651 0.106,-0.623C0.087,-0.594 0.077,-0.561 0.077,-0.524C0.077,-0.491 0.083,-0.464 0.096,-0.441C0.109,-0.418 0.125,-0.398 0.144,-0.383C0.163,-0.367 0.184,-0.354 0.205,-0.344C0.226,-0.333 0.246,-0.325 0.263,-0.319C0.292,-0.308 0.318,-0.298 0.341,-0.286C0.364,-0.276 0.381,-0.262 0.394,-0.247C0.406,-0.231 0.412,-0.21 0.412,-0.185C0.412,-0.157 0.402,-0.134 0.382,-0.117C0.362,-0.1 0.336,-0.091 0.304,-0.091C0.278,-0.091 0.254,-0.097 0.233,-0.108C0.211,-0.119 0.191,-0.135 0.173,-0.155C0.156,-0.175 0.139,-0.199 0.124,-0.226Z" style="fill:rgb(255,127,50);fill-rule:nonzero;"/>
                    </g>
                    <g transform="matrix(56,0,0,56,1229.71,622.935)">
                        <path d="M0.125,-0.321L0.625,-0.321L0.625,-0.43L0.125,-0.43L0.125,-0.321ZM0.548,-0.7L0.548,-0L0.666,-0L0.666,-0.7L0.548,-0.7ZM0.078,-0.7L0.078,-0L0.196,-0L0.196,-0.7L0.078,-0.7Z" style="fill:rgb(255,127,50);fill-rule:nonzero;"/>
                    </g>
                    <g transform="matrix(56,0,0,56,1275.85,622.935)">
                        <path d="M0.162,-0.18L0.532,-0.18L0.51,-0.28L0.185,-0.28L0.162,-0.18ZM0.345,-0.502L0.457,-0.242L0.459,-0.213L0.554,-0L0.688,-0L0.345,-0.739L0.003,-0L0.136,-0L0.233,-0.219L0.235,-0.245L0.345,-0.502Z" style="fill:rgb(255,127,50);fill-rule:nonzero;"/>
                    </g>
                    <g transform="matrix(56,0,0,56,1317.29,622.935)">
                        <path d="M0.163,-0.35C0.163,-0.398 0.173,-0.441 0.194,-0.478C0.215,-0.516 0.243,-0.546 0.279,-0.567C0.314,-0.588 0.355,-0.599 0.401,-0.599C0.448,-0.599 0.49,-0.588 0.526,-0.567C0.561,-0.546 0.589,-0.516 0.609,-0.478C0.629,-0.441 0.639,-0.398 0.639,-0.35C0.639,-0.302 0.629,-0.259 0.609,-0.222C0.588,-0.185 0.56,-0.155 0.525,-0.134C0.489,-0.112 0.448,-0.101 0.401,-0.101C0.355,-0.101 0.314,-0.112 0.279,-0.134C0.243,-0.155 0.215,-0.185 0.194,-0.222C0.173,-0.259 0.163,-0.302 0.163,-0.35ZM0.038,-0.35C0.038,-0.298 0.047,-0.25 0.065,-0.205C0.083,-0.16 0.108,-0.122 0.141,-0.089C0.174,-0.056 0.212,-0.031 0.257,-0.013C0.301,0.006 0.349,0.015 0.401,0.015C0.454,0.015 0.503,0.006 0.547,-0.013C0.591,-0.031 0.629,-0.056 0.662,-0.089C0.695,-0.122 0.72,-0.16 0.738,-0.205C0.756,-0.25 0.765,-0.298 0.765,-0.35C0.765,-0.403 0.756,-0.451 0.738,-0.495C0.72,-0.539 0.695,-0.577 0.662,-0.61C0.628,-0.642 0.59,-0.667 0.546,-0.686C0.502,-0.704 0.454,-0.713 0.401,-0.713C0.35,-0.713 0.302,-0.704 0.258,-0.686C0.213,-0.667 0.174,-0.642 0.141,-0.61C0.109,-0.577 0.083,-0.539 0.065,-0.495C0.047,-0.451 0.038,-0.403 0.038,-0.35Z" style="fill:rgb(255,127,50);fill-rule:nonzero;"/>
                    </g>
                    <g transform="matrix(56,0,0,56,1366.74,622.935)">
                        <path d="M0.078,-0.7L0.078,-0L0.474,-0L0.474,-0.106L0.196,-0.106L0.196,-0.7L0.078,-0.7Z" style="fill:rgb(255,127,50);fill-rule:nonzero;"/>
                    </g>
                    <g transform="matrix(56,0,0,56,1398.15,622.935)">
                        <rect x="0.078" y="-0.7" width="0.12" height="0.7" style="fill:rgb(255,127,50);fill-rule:nonzero;"/>
                    </g>
                    <g transform="matrix(56,0,0,56,1418.03,622.935)">
                        <path d="M0.589,-0.7L0.589,-0.23L0.078,-0.735L0.078,-0L0.194,-0L0.194,-0.47L0.705,0.035L0.705,-0.7L0.589,-0.7Z" style="fill:rgb(255,127,50);fill-rule:nonzero;"/>
                    </g>
                    <g transform="matrix(56,0,0,56,1487.64,622.935)">
                        <path d="M0.345,-0.208L0.139,-0.7L0.003,-0.7L0.345,0.039L0.688,-0.7L0.551,-0.7L0.345,-0.208Z" style="fill:rgb(255,127,50);fill-rule:nonzero;"/>
                    </g>
                    <g transform="matrix(56,0,0,56,1524.49,622.935)">
                        <path d="M0.162,-0.18L0.532,-0.18L0.51,-0.28L0.185,-0.28L0.162,-0.18ZM0.345,-0.502L0.457,-0.242L0.459,-0.213L0.554,-0L0.688,-0L0.345,-0.739L0.003,-0L0.136,-0L0.233,-0.219L0.235,-0.245L0.345,-0.502Z" style="fill:rgb(255,127,50);fill-rule:nonzero;"/>
                    </g>
                    <g transform="matrix(56,0,0,56,1567.61,622.935)">
                        <path d="M0.078,-0.7L0.078,-0L0.474,-0L0.474,-0.106L0.196,-0.106L0.196,-0.7L0.078,-0.7Z" style="fill:rgb(255,127,50);fill-rule:nonzero;"/>
                    </g>
                    <g transform="matrix(56,0,0,56,1599.03,622.935)">
                        <path d="M0.151,-0L0.504,-0L0.504,-0.104L0.151,-0.104L0.151,-0ZM0.151,-0.596L0.504,-0.596L0.504,-0.7L0.151,-0.7L0.151,-0.596ZM0.151,-0.324L0.484,-0.324L0.484,-0.426L0.151,-0.426L0.151,-0.324ZM0.078,-0.7L0.078,-0L0.194,-0L0.194,-0.7L0.078,-0.7Z" style="fill:rgb(255,127,50);fill-rule:nonzero;"/>
                    </g>
                    <g transform="matrix(56,0,0,56,1635.48,622.935)">
                        <path d="M0.589,-0.7L0.589,-0.23L0.078,-0.735L0.078,-0L0.194,-0L0.194,-0.47L0.705,0.035L0.705,-0.7L0.589,-0.7Z" style="fill:rgb(255,127,50);fill-rule:nonzero;"/>
                    </g>
                    <g transform="matrix(56,0,0,56,1683.81,622.935)">
                        <path d="M0.166,-0.35C0.166,-0.4 0.177,-0.444 0.2,-0.481C0.222,-0.518 0.251,-0.546 0.287,-0.567C0.323,-0.587 0.362,-0.597 0.405,-0.597C0.438,-0.597 0.469,-0.593 0.496,-0.584C0.523,-0.575 0.547,-0.564 0.568,-0.549C0.589,-0.534 0.608,-0.517 0.624,-0.498L0.624,-0.638C0.595,-0.663 0.564,-0.681 0.53,-0.694C0.495,-0.707 0.452,-0.713 0.401,-0.713C0.35,-0.713 0.302,-0.704 0.258,-0.687C0.213,-0.669 0.175,-0.644 0.142,-0.612C0.109,-0.579 0.084,-0.541 0.066,-0.497C0.047,-0.452 0.038,-0.403 0.038,-0.35C0.038,-0.297 0.047,-0.249 0.066,-0.204C0.084,-0.16 0.109,-0.122 0.142,-0.089C0.175,-0.056 0.213,-0.031 0.258,-0.014C0.302,0.003 0.35,0.012 0.401,0.012C0.452,0.012 0.495,0.006 0.53,-0.007C0.564,-0.02 0.595,-0.038 0.624,-0.062L0.624,-0.203C0.608,-0.184 0.589,-0.167 0.568,-0.152C0.547,-0.137 0.523,-0.125 0.496,-0.116C0.469,-0.107 0.438,-0.103 0.405,-0.103C0.362,-0.103 0.323,-0.113 0.287,-0.134C0.251,-0.155 0.222,-0.184 0.2,-0.221C0.177,-0.258 0.166,-0.301 0.166,-0.35Z" style="fill:rgb(255,127,50);fill-rule:nonzero;"/>
                    </g>
                    <g transform="matrix(56,0,0,56,1726.99,622.935)">
                        <rect x="0.078" y="-0.7" width="0.12" height="0.7" style="fill:rgb(255,127,50);fill-rule:nonzero;"/>
                    </g>
                    <g transform="matrix(56,0,0,56,1746.87,622.935)">
                        <path d="M0.162,-0.18L0.532,-0.18L0.51,-0.28L0.185,-0.28L0.162,-0.18ZM0.345,-0.502L0.457,-0.242L0.459,-0.213L0.554,-0L0.688,-0L0.345,-0.739L0.003,-0L0.136,-0L0.233,-0.219L0.235,-0.245L0.345,-0.502Z" style="fill:rgb(255,127,50);fill-rule:nonzero;"/>
                    </g>
                </g>
            </g>
        </g>
    </g>
</svg>
