<?xml version="1.0" encoding="UTF-8"?>
<!DOCTYPE svg PUBLIC "-//W3C//DTD SVG 1.1//EN" "http://www.w3.org/Graphics/SVG/1.1/DTD/svg11.dtd">
<svg clip-rule="evenodd" fill-rule="evenodd" stroke-linejoin="round" stroke-miterlimit="2" version="1.1" viewBox="0 0 1300 292" xml:space="preserve" xmlns="http://www.w3.org/2000/svg">
    <g transform="matrix(1,0,0,1,-333.544,-413.962)">
        <g id="blanco" transform="matrix(0.431954,0,0,0.431954,1.81087,300.209)">
            <g transform="matrix(2.31506,0,0,2.31506,-4.19229,-695.003)">
                <path d="M480.275,705.184C488.381,694.414 495.595,679.646 495.595,658.57C495.595,656.337 490.51,655.25 490.429,652.851C490.398,651.915 492.846,651.619 493.369,651.14C494.875,649.764 495.693,649.281 496.181,647.32C496.336,646.7 496.329,645.462 496.329,645.462C496.329,645.462 493.668,646.389 492.634,646.403C489.752,646.441 486.964,644.213 486.2,641.653C484.928,637.394 487.089,627.991 492.559,627.991C498.028,627.991 500.163,630.942 501.331,638.955C503.592,636.991 506.682,632.062 506.682,625.054C506.682,622.074 504.164,620.88 502.947,620.88C492.48,620.88 483.275,629.678 482.293,631.588C481.141,633.83 481.707,636.572 481.707,639.036C481.707,641.881 479.27,645.411 476.425,645.411C473.942,645.411 469.994,644.075 469.994,639.397C469.994,628.481 485.814,609.07 489.527,611.941C491.147,613.194 483.41,622.7 483.47,624.821C485.913,621.703 494.617,611.797 504.371,611.797C507.432,611.797 515.809,613.843 515.809,622.31C515.809,633.681 502.401,643.483 502.401,643.483C502.401,643.483 503.003,649.462 508.89,649.462C511.635,649.462 514.963,651.681 514.739,656.785C514.589,660.189 511.419,661.066 508.793,660.719C507.086,660.493 504.741,659.929 504.741,659.929C504.741,678.823 501.173,693.255 496.14,704.176C567.878,695.575 624.77,633.355 624.77,559.575C624.77,480.054 558.678,413.962 479.157,413.962C399.636,413.962 333.544,480.054 333.544,559.575C333.544,639.096 399.636,705.188 479.157,705.188C479.531,705.188 479.904,705.187 480.275,705.184ZM456.303,592.593C451.87,597.026 459.061,604.891 459.061,606.734C459.061,611.298 440.279,620.147 440.279,630.074C440.279,633.399 441.717,635.085 443.822,637.518C444.768,638.611 446.158,639.803 447.716,639.808C450.283,639.817 453.213,636.741 454.914,635.68C454.592,639.727 450.691,641.734 448.202,644.404C443.89,649.028 430.655,666.555 430.777,671.395C430.853,674.385 432.909,676.849 435.139,676.849C441.125,676.849 443.592,671.743 444.008,671.13C446.159,667.97 450.779,664.156 451.238,664.627C451.66,665.058 451.475,666.332 451.505,667.23C451.602,670.161 451.138,674.051 453.229,674.888C455.08,675.629 464.052,674.244 464.052,672.25C464.052,669.053 461.928,654.209 466.935,636.752C467.228,635.73 466.997,634.518 467.418,633.536C468.573,630.846 471.418,628.505 471.139,625.272C471.064,624.396 470.045,623.843 469.463,623.275C468.425,622.261 467.542,620.837 465.76,620.116C465.062,619.834 464.227,619.659 463.19,619.659C455.836,619.659 453.189,623.445 450.695,624.866C450.194,625.151 446.469,629.648 446.469,627.991C446.469,626.02 452.062,621.859 456.584,617.252C459.091,614.698 462.491,611.557 463.338,611.557C466.171,611.557 464.963,612.618 468.566,612.618C470.766,612.618 474.611,610.563 474.611,606.249C474.611,602.423 471.424,600.441 468.502,598.863C467.257,598.191 464.926,596.612 463.817,595.73C461.967,594.258 457.752,591.143 456.303,592.593ZM452.004,648.545C450.333,648.545 446.48,659.297 446.039,660.986C447.492,659.533 449.111,658.877 449.814,657.962C452.202,654.855 452.619,648.545 452.004,648.545ZM492.981,632.191C489.116,632.191 489.635,637.56 489.635,638.897C489.635,641.924 491.734,642.77 493.004,642.77C494.663,642.77 495.004,642.525 496.155,641.813C495.926,640.296 495.83,639.559 495.455,637.825C495.211,636.697 494.569,632.191 492.981,632.191ZM554.26,577.922C554.26,601.775 534.92,600.895 534.92,616.314C534.92,623.26 542.035,629.736 548.981,629.736C570.707,629.736 582.405,603.126 582.405,584.463C582.405,559.662 553.99,526.805 539.664,526.805C539.075,526.805 538.276,527.472 538.276,528.06C538.276,530.275 545.449,534.322 543.883,535.889C542.714,537.057 540.862,535.535 539.915,536.482C536.419,539.978 554.26,551.495 554.26,577.922ZM488.455,595.707C487.794,595.6 486.318,597.756 484.473,597.514C483.564,597.393 479.886,596.433 479.411,597.542C478.704,599.193 480.648,601.875 481.633,602.925C482.82,604.193 483.972,606.622 486.446,608.079C488.92,609.536 492.202,607.617 493.07,606.244C494.097,604.621 492.801,602.031 491.569,600.842C490.987,600.279 488.776,598.939 488.438,598.157C488.124,597.431 489.116,595.814 488.455,595.707ZM504.62,598.141C503.995,601.29 495.901,605.159 497.455,606.714C498.522,607.781 507.176,603.473 508.192,603.48C510.374,603.495 512.257,605.118 514.614,604.258C517.078,603.358 519.232,600.357 518.383,597.633C518.081,596.665 517.306,596.218 516.818,595.402C514.121,590.894 508.679,588.684 503.604,587.877C502.216,587.657 498.356,586.841 497.906,589.016C497.639,590.305 500.738,592.785 501.529,593.737C502.579,594.999 503.241,597.294 504.62,598.141ZM401.751,552.66C401.751,530.374 421.578,532.915 421.578,515.182C421.578,508.236 414.464,501.759 407.518,501.759C385.792,501.759 372.607,522.767 372.607,547.032C372.607,579.872 402.508,604.69 416.835,604.69C417.423,604.69 418.222,604.024 418.222,603.435C418.222,601.22 411.049,597.173 412.616,595.607C413.784,594.438 415.637,595.961 416.584,595.014C420.262,591.335 401.751,587.003 401.751,552.66ZM464.704,550.374C461.562,555.225 458.148,555.992 455.855,559.575C453.248,559.643 445.326,559.126 445.004,562.869C467.865,566.262 476.097,580.048 493.261,580.048C496.435,580.048 503.183,572.942 505.134,570.438C508.699,565.862 512.513,547.553 510.819,545.899C508.216,543.356 491.079,564.794 477.64,564.794C470.183,564.794 467.715,561.149 461.146,561.131C469.467,554.879 473.912,553.784 482.19,553.784C485.55,553.784 492.244,551.34 492.244,546.983C492.244,540.788 483.553,537.844 472.337,537.844C466.616,537.844 461.415,539.832 457.236,540.015C455.139,540.106 445.55,538.803 442.98,538.834C442.019,538.846 440.279,538.914 440.279,540.017C440.279,543.743 461.041,549.692 464.704,550.374ZM456.046,520.261C456.046,523.064 462.997,525.316 462.997,530.216C462.997,531.807 460.183,532.913 462.01,534.616C463.477,535.982 475.266,529.835 475.266,523.801C475.266,520.273 461.708,517.473 458.18,517.473C456.859,517.473 456.046,519.204 456.046,520.261ZM457.269,451.705L457.06,451.866C454.868,453.556 452.71,455.244 452.71,456.722C452.71,461.48 454.313,462.062 454.313,463.355C454.313,465.221 455.929,466.267 459.489,466.267C461.315,466.267 465.046,464.825 465.541,465.473C466.122,466.233 462.037,467.158 459.17,468.757C458.158,469.321 453.726,472.455 453.229,471.958C452.732,471.461 454.969,469.609 454.969,468.071C454.969,467.27 454.524,466.76 453.17,466.76C449.703,466.76 435.923,481.738 435.923,486.661C435.923,489.163 437.08,490.877 438.772,490.877C449.444,490.877 456.433,478.359 459.482,478.359C453.451,485.117 446.688,499.278 446.688,507.177C446.688,510.39 450.434,511.275 453.646,511.275C463.135,511.275 475.475,501.927 482.467,501.927C485.422,501.927 505.171,523.785 517.807,523.785C520.13,523.785 520.825,521.047 520.825,515.86C520.825,510.673 516.044,483.751 512.347,483.751C511.618,483.751 512.066,485.074 511.895,485.891C511.106,485.388 509.661,481.839 508.783,481.839C507.181,481.839 507.944,487.106 508.078,489.523C508.286,493.244 508.731,496.832 508.964,499.687C509.151,501.962 509.385,505.705 508.748,506.342C508.111,506.979 503.167,503.429 502.085,502.848C498.607,500.979 493.374,498.067 491.298,494.581C490.41,493.09 491.584,490.952 490.419,489.65C489.459,488.578 487.729,488.796 486.617,487.973C485.675,487.275 485.536,486.303 484.885,485.435C483.528,483.629 481.905,482.334 480.955,480.228C479.824,477.718 477.783,473.847 479.825,471.805C483.521,468.109 482.712,465.854 482.628,464.453C482.573,463.537 482.032,461.985 481.102,461.636C480.144,461.276 478.912,461.923 478.072,461.188C477.498,460.685 474.295,455.922 473.48,454.039C472.937,452.781 472.062,451.795 471.608,452.048C471.421,452.152 471.007,451.29 470.491,450.853C469.69,450.175 468.694,449.687 468.324,448.978C467.996,448.35 468.145,447.666 468.035,446.994C467.908,446.215 467.503,445.492 467.481,444.696C467.46,443.878 467.904,443.187 468.035,442.399C468.232,441.22 468.085,439.916 468.085,438.723C468.085,436.6 468.674,433.257 465.635,433.218C464.787,433.207 464.644,433.954 463.49,433.954C461.504,433.954 462.216,434.496 461.598,434.632C461.052,434.752 460.769,434.146 460.187,434.581C459.469,435.118 459.779,441.335 460.187,442.858C460.601,444.402 461.62,444.928 461.62,446.848C461.62,448.326 459.461,450.014 457.269,451.705ZM465.328,481.913C464.232,481.824 461.02,488.001 460.392,489.877C459.698,491.946 458.733,493.957 457.967,496.003C457.574,497.053 456.119,500.095 457.15,501.097C457.655,501.587 458.695,501.3 459.202,500.998C463.382,498.514 465.377,498.497 465.377,497.17C465.377,492.927 464.322,489.796 464.322,487.402C464.322,484.454 465.682,481.942 465.328,481.913ZM475.277,493.995C475.833,493.372 475.636,492.484 476.4,491.992C476.784,491.745 477.16,491.933 477.43,491.455C477.699,490.979 476.187,489.15 475.647,489.228C474.943,489.329 472.076,493.522 472.179,494.218C472.292,494.986 474.946,494.366 475.277,493.995ZM470.229,479.747C467.431,480.87 467.373,484.673 467.474,487.12C467.502,487.791 467.64,490.4 468.698,490.082C469.419,489.865 469.86,488.929 470.24,488.345C471.363,486.625 472.523,484.625 472.527,482.525C472.529,481.215 472.156,478.974 470.229,479.747ZM487.689,441.786C486.338,440.725 485.818,441.702 485.407,443.012C484.86,444.757 484.646,445.708 484.646,447.606C484.646,449.505 486.69,452.424 488.69,453.336C488.096,454.156 486.56,455.737 486.56,457.086C486.56,458.734 487.305,458.792 487.888,458.792C491.974,458.792 494.144,456.303 495.851,455.313C496.997,454.648 512.272,452.232 510.186,446.228C509.872,445.324 509.159,444.766 508.544,444.078C507.975,443.44 507.626,442.664 506.831,442.267C504.671,441.187 501.559,441.712 499.329,442.282C498.012,442.618 496.75,443.177 495.347,442.862C494.39,442.646 493.652,441.91 492.743,441.591C492.144,441.381 491.646,441.301 491.057,441.025C489.74,440.409 488.242,439.905 487.689,441.786Z" style="fill:white;"/>
            </g>
            <g id="ESCRITO" transform="matrix(0.443204,0,0,0.443204,856.272,169.818)">
                <g transform="matrix(7.69107,0,0,7.69107,-7524.5,-3242.79)">
                    <g transform="matrix(56,0,0,56,1192.8,622.935)">
                        <path d="M0.124,-0.226L0.036,-0.164C0.051,-0.132 0.072,-0.102 0.099,-0.075C0.125,-0.048 0.156,-0.026 0.191,-0.01C0.226,0.007 0.263,0.015 0.304,0.015C0.334,0.015 0.363,0.01 0.391,0C0.418,-0.009 0.443,-0.023 0.465,-0.041C0.487,-0.058 0.504,-0.08 0.518,-0.106C0.531,-0.132 0.537,-0.161 0.537,-0.194C0.537,-0.225 0.532,-0.252 0.521,-0.275C0.51,-0.298 0.497,-0.317 0.48,-0.334C0.463,-0.351 0.444,-0.365 0.423,-0.376C0.402,-0.387 0.38,-0.397 0.359,-0.404C0.322,-0.417 0.291,-0.43 0.268,-0.443C0.245,-0.456 0.228,-0.469 0.217,-0.484C0.205,-0.498 0.2,-0.514 0.2,-0.532C0.2,-0.552 0.208,-0.57 0.223,-0.585C0.238,-0.6 0.262,-0.607 0.295,-0.607C0.318,-0.607 0.339,-0.603 0.357,-0.594C0.374,-0.585 0.39,-0.573 0.403,-0.558C0.416,-0.543 0.428,-0.526 0.437,-0.509L0.532,-0.563C0.521,-0.588 0.504,-0.611 0.483,-0.634C0.462,-0.657 0.436,-0.676 0.405,-0.691C0.374,-0.706 0.338,-0.713 0.297,-0.713C0.255,-0.713 0.218,-0.705 0.185,-0.689C0.152,-0.673 0.125,-0.651 0.106,-0.623C0.087,-0.594 0.077,-0.561 0.077,-0.524C0.077,-0.491 0.083,-0.464 0.096,-0.441C0.109,-0.418 0.125,-0.398 0.144,-0.383C0.163,-0.367 0.184,-0.354 0.205,-0.344C0.226,-0.333 0.246,-0.325 0.263,-0.319C0.292,-0.308 0.318,-0.298 0.341,-0.286C0.364,-0.276 0.381,-0.262 0.394,-0.247C0.406,-0.231 0.412,-0.21 0.412,-0.185C0.412,-0.157 0.402,-0.134 0.382,-0.117C0.362,-0.1 0.336,-0.091 0.304,-0.091C0.278,-0.091 0.254,-0.097 0.233,-0.108C0.211,-0.119 0.191,-0.135 0.173,-0.155C0.156,-0.175 0.139,-0.199 0.124,-0.226Z" style="fill:white;fill-rule:nonzero;"/>
                    </g>
                    <g transform="matrix(56,0,0,56,1229.71,622.935)">
                        <path d="M0.125,-0.321L0.625,-0.321L0.625,-0.43L0.125,-0.43L0.125,-0.321ZM0.548,-0.7L0.548,-0L0.666,-0L0.666,-0.7L0.548,-0.7ZM0.078,-0.7L0.078,-0L0.196,-0L0.196,-0.7L0.078,-0.7Z" style="fill:white;fill-rule:nonzero;"/>
                    </g>
                    <g transform="matrix(56,0,0,56,1275.85,622.935)">
                        <path d="M0.162,-0.18L0.532,-0.18L0.51,-0.28L0.185,-0.28L0.162,-0.18ZM0.345,-0.502L0.457,-0.242L0.459,-0.213L0.554,-0L0.688,-0L0.345,-0.739L0.003,-0L0.136,-0L0.233,-0.219L0.235,-0.245L0.345,-0.502Z" style="fill:white;fill-rule:nonzero;"/>
                    </g>
                    <g transform="matrix(56,0,0,56,1317.29,622.935)">
                        <path d="M0.163,-0.35C0.163,-0.398 0.173,-0.441 0.194,-0.478C0.215,-0.516 0.243,-0.546 0.279,-0.567C0.314,-0.588 0.355,-0.599 0.401,-0.599C0.448,-0.599 0.49,-0.588 0.526,-0.567C0.561,-0.546 0.589,-0.516 0.609,-0.478C0.629,-0.441 0.639,-0.398 0.639,-0.35C0.639,-0.302 0.629,-0.259 0.609,-0.222C0.588,-0.185 0.56,-0.155 0.525,-0.134C0.489,-0.112 0.448,-0.101 0.401,-0.101C0.355,-0.101 0.314,-0.112 0.279,-0.134C0.243,-0.155 0.215,-0.185 0.194,-0.222C0.173,-0.259 0.163,-0.302 0.163,-0.35ZM0.038,-0.35C0.038,-0.298 0.047,-0.25 0.065,-0.205C0.083,-0.16 0.108,-0.122 0.141,-0.089C0.174,-0.056 0.212,-0.031 0.257,-0.013C0.301,0.006 0.349,0.015 0.401,0.015C0.454,0.015 0.503,0.006 0.547,-0.013C0.591,-0.031 0.629,-0.056 0.662,-0.089C0.695,-0.122 0.72,-0.16 0.738,-0.205C0.756,-0.25 0.765,-0.298 0.765,-0.35C0.765,-0.403 0.756,-0.451 0.738,-0.495C0.72,-0.539 0.695,-0.577 0.662,-0.61C0.628,-0.642 0.59,-0.667 0.546,-0.686C0.502,-0.704 0.454,-0.713 0.401,-0.713C0.35,-0.713 0.302,-0.704 0.258,-0.686C0.213,-0.667 0.174,-0.642 0.141,-0.61C0.109,-0.577 0.083,-0.539 0.065,-0.495C0.047,-0.451 0.038,-0.403 0.038,-0.35Z" style="fill:white;fill-rule:nonzero;"/>
                    </g>
                    <g transform="matrix(56,0,0,56,1366.74,622.935)">
                        <path d="M0.078,-0.7L0.078,-0L0.474,-0L0.474,-0.106L0.196,-0.106L0.196,-0.7L0.078,-0.7Z" style="fill:white;fill-rule:nonzero;"/>
                    </g>
                    <g transform="matrix(56,0,0,56,1398.15,622.935)">
                        <rect x="0.078" y="-0.7" width="0.12" height="0.7" style="fill:white;fill-rule:nonzero;"/>
                    </g>
                    <g transform="matrix(56,0,0,56,1418.03,622.935)">
                        <path d="M0.589,-0.7L0.589,-0.23L0.078,-0.735L0.078,-0L0.194,-0L0.194,-0.47L0.705,0.035L0.705,-0.7L0.589,-0.7Z" style="fill:white;fill-rule:nonzero;"/>
                    </g>
                    <g transform="matrix(56,0,0,56,1487.64,622.935)">
                        <path d="M0.345,-0.208L0.139,-0.7L0.003,-0.7L0.345,0.039L0.688,-0.7L0.551,-0.7L0.345,-0.208Z" style="fill:white;fill-rule:nonzero;"/>
                    </g>
                    <g transform="matrix(56,0,0,56,1524.49,622.935)">
                        <path d="M0.162,-0.18L0.532,-0.18L0.51,-0.28L0.185,-0.28L0.162,-0.18ZM0.345,-0.502L0.457,-0.242L0.459,-0.213L0.554,-0L0.688,-0L0.345,-0.739L0.003,-0L0.136,-0L0.233,-0.219L0.235,-0.245L0.345,-0.502Z" style="fill:white;fill-rule:nonzero;"/>
                    </g>
                    <g transform="matrix(56,0,0,56,1567.61,622.935)">
                        <path d="M0.078,-0.7L0.078,-0L0.474,-0L0.474,-0.106L0.196,-0.106L0.196,-0.7L0.078,-0.7Z" style="fill:white;fill-rule:nonzero;"/>
                    </g>
                    <g transform="matrix(56,0,0,56,1599.03,622.935)">
                        <path d="M0.151,-0L0.504,-0L0.504,-0.104L0.151,-0.104L0.151,-0ZM0.151,-0.596L0.504,-0.596L0.504,-0.7L0.151,-0.7L0.151,-0.596ZM0.151,-0.324L0.484,-0.324L0.484,-0.426L0.151,-0.426L0.151,-0.324ZM0.078,-0.7L0.078,-0L0.194,-0L0.194,-0.7L0.078,-0.7Z" style="fill:white;fill-rule:nonzero;"/>
                    </g>
                    <g transform="matrix(56,0,0,56,1635.48,622.935)">
                        <path d="M0.589,-0.7L0.589,-0.23L0.078,-0.735L0.078,-0L0.194,-0L0.194,-0.47L0.705,0.035L0.705,-0.7L0.589,-0.7Z" style="fill:white;fill-rule:nonzero;"/>
                    </g>
                    <g transform="matrix(56,0,0,56,1683.81,622.935)">
                        <path d="M0.166,-0.35C0.166,-0.4 0.177,-0.444 0.2,-0.481C0.222,-0.518 0.251,-0.546 0.287,-0.567C0.323,-0.587 0.362,-0.597 0.405,-0.597C0.438,-0.597 0.469,-0.593 0.496,-0.584C0.523,-0.575 0.547,-0.564 0.568,-0.549C0.589,-0.534 0.608,-0.517 0.624,-0.498L0.624,-0.638C0.595,-0.663 0.564,-0.681 0.53,-0.694C0.495,-0.707 0.452,-0.713 0.401,-0.713C0.35,-0.713 0.302,-0.704 0.258,-0.687C0.213,-0.669 0.175,-0.644 0.142,-0.612C0.109,-0.579 0.084,-0.541 0.066,-0.497C0.047,-0.452 0.038,-0.403 0.038,-0.35C0.038,-0.297 0.047,-0.249 0.066,-0.204C0.084,-0.16 0.109,-0.122 0.142,-0.089C0.175,-0.056 0.213,-0.031 0.258,-0.014C0.302,0.003 0.35,0.012 0.401,0.012C0.452,0.012 0.495,0.006 0.53,-0.007C0.564,-0.02 0.595,-0.038 0.624,-0.062L0.624,-0.203C0.608,-0.184 0.589,-0.167 0.568,-0.152C0.547,-0.137 0.523,-0.125 0.496,-0.116C0.469,-0.107 0.438,-0.103 0.405,-0.103C0.362,-0.103 0.323,-0.113 0.287,-0.134C0.251,-0.155 0.222,-0.184 0.2,-0.221C0.177,-0.258 0.166,-0.301 0.166,-0.35Z" style="fill:white;fill-rule:nonzero;"/>
                    </g>
                    <g transform="matrix(56,0,0,56,1726.99,622.935)">
                        <rect x="0.078" y="-0.7" width="0.12" height="0.7" style="fill:white;fill-rule:nonzero;"/>
                    </g>
                    <g transform="matrix(56,0,0,56,1746.87,622.935)">
                        <path d="M0.162,-0.18L0.532,-0.18L0.51,-0.28L0.185,-0.28L0.162,-0.18ZM0.345,-0.502L0.457,-0.242L0.459,-0.213L0.554,-0L0.688,-0L0.345,-0.739L0.003,-0L0.136,-0L0.233,-0.219L0.235,-0.245L0.345,-0.502Z" style="fill:white;fill-rule:nonzero;"/>
                    </g>
                </g>
                <g transform="matrix(7.74167,0,0,7.74167,-4006.82,-2830.2)">
                    <g transform="matrix(82.4547,0,0,82.4547,728.577,488.233)">
                        <path d="M0.7,-0.121L0.487,-0.727L0.277,-0.121L0.075,-0.7L0.014,-0.7L0.273,0.027L0.487,-0.576L0.701,0.027L0.96,-0.7L0.899,-0.7L0.7,-0.121Z" style="fill:white;fill-rule:nonzero;"/>
                    </g>
                    <g transform="matrix(82.4547,0,0,82.4547,815.485,488.233)">
                        <path d="M0.079,-0.7L0.079,-0.226C0.079,-0.191 0.084,-0.16 0.094,-0.131C0.104,-0.102 0.119,-0.077 0.138,-0.056C0.157,-0.035 0.181,-0.019 0.209,-0.008C0.236,0.004 0.268,0.01 0.303,0.01C0.338,0.01 0.37,0.004 0.398,-0.008C0.425,-0.019 0.449,-0.035 0.468,-0.056C0.487,-0.077 0.502,-0.102 0.512,-0.131C0.522,-0.16 0.527,-0.191 0.527,-0.226L0.527,-0.7L0.472,-0.7L0.472,-0.226C0.472,-0.17 0.457,-0.125 0.428,-0.092C0.399,-0.059 0.357,-0.042 0.303,-0.042C0.249,-0.042 0.207,-0.059 0.178,-0.092C0.149,-0.125 0.134,-0.17 0.134,-0.226L0.134,-0.7L0.079,-0.7Z" style="fill:white;fill-rule:nonzero;"/>
                    </g>
                    <g transform="matrix(82.4547,0,0,82.4547,903.381,488.233)">
                        <path d="M0.037,-0.648L0.429,-0.648L0.017,-0L0.507,-0L0.507,-0.052L0.111,-0.052L0.523,-0.7L0.037,-0.7L0.037,-0.648Z" style="fill:white;fill-rule:nonzero;"/>
                    </g>
                    <g transform="matrix(82.4547,0,0,82.4547,954.586,488.233)">
                        <path d="M0.113,-0.355L0.585,-0.355L0.585,-0.407L0.113,-0.407L0.113,-0.355ZM0.548,-0.7L0.548,-0L0.604,-0L0.604,-0.7L0.548,-0.7ZM0.084,-0.7L0.084,-0L0.139,-0L0.139,-0.7L0.084,-0.7Z" style="fill:white;fill-rule:nonzero;"/>
                    </g>
                    <g transform="matrix(82.4547,0,0,82.4547,1017.91,488.233)">
                        <rect x="0.082" y="-0.7" width="0.055" height="0.7" style="fill:white;fill-rule:nonzero;"/>
                    </g>
                    <g transform="matrix(82.4547,0,0,82.4547,1073.9,488.233)">
                        <path d="M0.103,-0.35C0.103,-0.41 0.116,-0.463 0.141,-0.508C0.166,-0.553 0.2,-0.589 0.243,-0.615C0.286,-0.64 0.333,-0.653 0.386,-0.653C0.419,-0.653 0.449,-0.649 0.476,-0.642C0.503,-0.635 0.528,-0.624 0.551,-0.61C0.574,-0.595 0.594,-0.578 0.611,-0.558L0.611,-0.631C0.582,-0.657 0.55,-0.677 0.515,-0.69C0.48,-0.703 0.437,-0.709 0.386,-0.709C0.337,-0.709 0.292,-0.7 0.251,-0.683C0.209,-0.665 0.173,-0.64 0.142,-0.608C0.111,-0.576 0.087,-0.538 0.07,-0.494C0.053,-0.45 0.044,-0.402 0.044,-0.35C0.044,-0.298 0.053,-0.25 0.07,-0.206C0.087,-0.162 0.111,-0.124 0.142,-0.092C0.173,-0.06 0.209,-0.035 0.251,-0.018C0.292,0 0.337,0.009 0.386,0.009C0.437,0.009 0.48,0.002 0.515,-0.011C0.55,-0.024 0.582,-0.043 0.611,-0.069L0.611,-0.143C0.594,-0.123 0.574,-0.106 0.552,-0.091C0.529,-0.076 0.504,-0.065 0.477,-0.058C0.45,-0.051 0.419,-0.047 0.386,-0.047C0.333,-0.047 0.286,-0.06 0.243,-0.086C0.2,-0.112 0.166,-0.148 0.141,-0.193C0.116,-0.238 0.103,-0.291 0.103,-0.35Z" style="fill:white;fill-rule:nonzero;"/>
                    </g>
                    <g transform="matrix(82.4547,0,0,82.4547,1136.98,488.233)">
                        <path d="M0.113,-0.355L0.585,-0.355L0.585,-0.407L0.113,-0.407L0.113,-0.355ZM0.548,-0.7L0.548,-0L0.604,-0L0.604,-0.7L0.548,-0.7ZM0.084,-0.7L0.084,-0L0.139,-0L0.139,-0.7L0.084,-0.7Z" style="fill:white;fill-rule:nonzero;"/>
                    </g>
                    <g transform="matrix(82.4547,0,0,82.4547,1200.3,488.233)">
                        <path d="M0.14,-0.235L0.499,-0.235L0.481,-0.287L0.158,-0.287L0.14,-0.235ZM0.318,-0.6L0.456,-0.266L0.461,-0.253L0.565,-0L0.627,-0L0.318,-0.727L0.009,-0L0.071,-0L0.176,-0.257L0.182,-0.269L0.318,-0.6Z" style="fill:white;fill-rule:nonzero;"/>
                    </g>
                    <g transform="matrix(82.4547,0,0,82.4547,1259.34,488.233)">
                        <path d="M0.616,-0.7L0.616,-0.114L0.084,-0.727L0.084,-0L0.139,-0L0.139,-0.584L0.671,0.027L0.671,-0.7L0.616,-0.7Z" style="fill:white;fill-rule:nonzero;"/>
                    </g>
                </g>
            </g>
        </g>
    </g>
</svg>
